{"glyphs":{"0":{"ha":1110,"x_min":0,"x_max":0,"o":"m 83 525 b 554 -18 83 211 232 -18 b 1026 528 876 -18 1026 208 b 553 1064 1026 843 850 1064 b 83 525 258 1064 83 831 z m 551 899 b 831 529 740 899 831 756 b 553 150 831 283 744 150 b 279 526 363 150 279 283 b 551 899 279 738 363 899 z "},"1":{"ha":544,"x_min":0,"x_max":0,"o":"m 282 1046 b 61 851 253 918 158 869 l 61 707 b 238 765 118 713 200 735 l 238 0 l 424 0 l 424 1046 z "},"2":{"ha":975,"x_min":0,"x_max":0,"o":"m 74 718 l 238 668 b 497 893 275 822 354 893 b 699 743 622 893 699 849 b 457 503 699 633 651 590 b 76 0 207 390 85 251 l 900 0 l 900 167 l 318 167 b 611 393 331 250 426 313 b 896 733 776 465 896 550 b 513 1061 896 942 738 1061 b 74 718 200 1061 94 860 z "},"3":{"ha":947,"x_min":0,"x_max":0,"o":"m 40 272 b 478 -18 92 86 251 -18 b 876 297 700 -18 876 89 b 724 536 876 415 818 497 b 857 750 793 567 857 626 b 474 1064 857 939 718 1064 b 61 768 247 1064 103 949 l 232 703 b 467 896 257 807 319 896 b 668 749 589 896 668 849 b 517 611 668 656 617 611 l 393 611 l 393 444 l 506 444 b 682 303 638 444 682 392 b 474 156 682 219 621 156 b 218 347 296 156 247 246 z "},"4":{"ha":964,"x_min":0,"x_max":0,"o":"m 744 218 l 908 218 l 908 383 l 744 383 l 744 1046 l 549 1046 b 64 383 443 839 242 576 l 64 218 l 558 218 l 558 0 l 744 0 z m 560 383 l 258 383 b 569 801 375 514 486 644 z "},"5":{"ha":947,"x_min":0,"x_max":0,"o":"m 788 1046 l 185 1046 l 96 425 l 268 425 b 488 540 308 500 374 540 b 686 346 615 540 686 482 b 461 154 686 215 606 154 b 232 296 329 154 261 215 l 50 249 b 464 -18 93 103 225 -18 b 883 340 728 -18 883 119 b 510 700 883 589 726 700 b 286 622 407 700 333 668 l 325 879 l 788 879 z "},"6":{"ha":982,"x_min":0,"x_max":0,"o":"m 83 458 b 508 -18 83 176 239 -18 b 911 360 746 -18 911 132 b 533 710 911 588 746 710 b 282 596 414 710 329 665 b 546 899 299 788 393 899 b 757 753 651 899 714 851 l 903 858 b 554 1064 838 989 726 1064 b 83 458 243 1064 83 821 z m 511 557 b 722 353 632 557 722 485 b 510 144 722 229 633 144 b 290 349 376 144 290 235 b 511 557 290 481 375 557 z "},"7":{"ha":872,"x_min":0,"x_max":0,"o":"m 247 0 l 454 0 b 819 900 460 336 606 639 l 819 1046 l 42 1046 l 42 879 l 632 879 b 247 0 465 697 254 356 z "},"8":{"ha":978,"x_min":0,"x_max":0,"o":"m 496 1064 b 106 767 264 1064 106 953 b 246 539 106 646 163 579 b 71 297 164 504 71 440 b 479 -18 71 117 210 -18 b 907 299 764 -18 907 101 b 731 550 907 444 819 515 b 871 769 801 585 871 647 b 496 1064 871 954 733 1064 z m 494 463 b 721 300 639 463 721 404 b 481 144 721 206 633 144 b 257 308 326 144 257 208 b 494 463 257 411 354 463 z m 492 907 b 693 765 622 907 693 860 b 483 614 693 661 624 614 b 283 765 351 614 283 663 b 492 907 283 850 350 907 z "},"9":{"ha":982,"x_min":0,"x_max":0,"o":"m 899 594 b 474 1064 899 876 743 1064 b 71 693 236 1064 71 915 b 449 349 71 475 240 349 b 706 454 568 349 654 381 b 458 147 685 263 614 147 b 224 296 331 147 269 203 l 76 199 b 451 -18 139 71 258 -18 b 899 594 774 -18 899 222 z m 467 500 b 260 700 349 500 260 560 b 472 901 260 824 347 901 b 692 701 604 901 692 828 b 467 500 692 569 606 500 z "},"\u0000":{"ha":0,"x_min":0,"x_max":0,"o":""},"\r":{"ha":343,"x_min":0,"x_max":0,"o":""}," ":{"ha":343,"x_min":0,"x_max":0,"o":""},"!":{"ha":442,"x_min":0,"x_max":0,"o":"m 122 1046 l 122 740 l 174 336 l 268 336 l 319 740 l 319 1046 z m 118 0 l 324 0 l 324 203 l 118 203 z "},"\"":{"ha":683,"x_min":0,"x_max":0,"o":"m 125 608 l 257 608 l 292 1047 l 90 1047 z m 426 608 l 558 608 l 593 1047 l 393 1047 z "},"#":{"ha":775,"x_min":0,"x_max":0,"o":"m 204 614 l 175 451 l 51 451 l 26 306 l 150 306 l 94 0 l 222 0 l 278 306 l 418 306 l 363 0 l 490 0 l 546 306 l 669 306 l 694 451 l 571 451 l 600 614 l 724 614 l 749 760 l 625 760 l 676 1046 l 549 1046 l 497 760 l 357 760 l 408 1046 l 281 1046 l 229 760 l 106 760 l 81 614 z m 472 614 l 443 451 l 303 451 l 332 614 z "},"$":{"ha":986,"x_min":0,"x_max":0,"o":"m 435 -11 l 435 -197 l 557 -197 l 557 -12 b 932 285 781 -1 932 86 b 557 610 932 513 769 574 l 557 890 b 754 738 653 872 718 821 l 906 833 b 557 1054 842 961 729 1038 l 557 1189 l 435 1189 l 435 1057 b 79 751 199 1044 79 928 b 435 446 79 528 253 476 l 435 156 b 210 331 313 172 250 226 l 43 257 b 435 -11 94 113 217 8 z m 557 153 l 557 426 b 744 285 683 401 744 375 b 557 153 744 197 686 158 z m 435 896 l 435 631 b 258 763 318 653 258 679 b 435 896 258 846 310 889 z "},"%":{"ha":1436,"x_min":0,"x_max":0,"o":"m 324 456 b 596 763 500 456 596 588 b 325 1061 596 936 496 1061 b 56 758 156 1061 56 931 b 324 456 56 586 149 456 z m 1108 -18 b 1381 289 1285 -18 1381 114 b 1110 588 1381 463 1281 588 b 840 285 940 588 840 457 b 1108 -18 840 113 933 -18 z m 319 0 l 464 0 l 1114 1046 l 969 1046 z m 1110 106 b 988 286 1024 106 988 171 b 1108 467 988 401 1022 467 b 1233 288 1196 467 1233 399 b 1110 106 1233 174 1196 106 z m 325 579 b 203 760 239 579 203 644 b 324 940 203 875 238 940 b 449 761 411 940 449 872 b 325 579 449 647 411 579 z "},"&":{"ha":1036,"x_min":0,"x_max":0,"o":"m 513 571 b 742 843 653 650 742 718 b 519 1060 742 967 654 1060 b 256 811 372 1060 256 972 b 297 610 256 749 269 681 b 56 279 175 544 56 453 b 397 -15 56 114 158 -15 b 675 81 507 -15 599 21 b 889 -10 753 14 814 -10 b 1003 24 946 -10 979 8 l 968 183 l 964 183 b 897 160 949 168 921 160 b 793 213 868 160 844 167 b 936 582 863 317 910 447 l 783 600 b 685 326 761 489 726 399 b 513 571 622 401 561 492 z m 567 190 b 407 133 515 153 461 133 b 243 290 307 133 243 189 b 358 483 243 385 292 439 b 567 190 417 381 492 275 z m 453 689 b 425 817 435 735 425 781 b 513 921 425 893 467 921 b 582 839 551 921 582 896 b 453 689 582 783 546 740 z "},"'":{"ha":382,"x_min":0,"x_max":0,"o":"m 125 608 l 257 608 l 292 1047 l 90 1047 z "},"(":{"ha":586,"x_min":0,"x_max":0,"o":"m 429 -256 l 528 -162 b 279 439 401 -24 279 153 b 528 1042 279 725 397 906 l 429 1135 b 88 439 247 981 88 754 b 429 -256 88 115 251 -96 z "},")":{"ha":586,"x_min":0,"x_max":0,"o":"m 157 -256 b 499 439 335 -96 499 115 b 157 1135 499 754 339 981 l 58 1042 b 307 439 189 906 307 725 b 58 -162 307 153 185 -24 z "},"*":{"ha":625,"x_min":0,"x_max":0,"o":"m 221 536 l 311 710 l 404 536 l 518 618 l 383 764 l 563 799 l 518 935 l 358 850 l 385 1046 l 240 1046 l 267 850 l 107 935 l 63 799 l 242 764 l 106 618 z "},"+":{"ha":765,"x_min":0,"x_max":0,"o":"m 460 381 l 675 381 l 675 539 l 460 539 l 460 756 l 307 756 l 307 539 l 90 539 l 90 381 l 307 381 l 307 164 l 460 164 z "},",":{"ha":442,"x_min":0,"x_max":0,"o":"m 119 -199 b 324 17 222 -186 324 -128 l 324 203 l 118 203 l 118 0 l 217 0 b 119 -107 217 -72 171 -96 z "},"-":{"ha":567,"x_min":0,"x_max":0,"o":"m 90 303 l 463 303 l 463 467 l 90 467 z "},".":{"ha":442,"x_min":0,"x_max":0,"o":"m 118 0 l 324 0 l 324 203 l 118 203 z "},"/":{"ha":590,"x_min":0,"x_max":0,"o":"m -14 -206 l 154 -206 l 574 1129 l 407 1129 z "},":":{"ha":464,"x_min":0,"x_max":0,"o":"m 129 410 l 335 410 l 335 613 l 129 613 z m 129 0 l 335 0 l 335 203 l 129 203 z "},";":{"ha":464,"x_min":0,"x_max":0,"o":"m 131 -199 b 335 17 233 -186 335 -128 l 335 203 l 129 203 l 129 0 l 228 0 b 131 -107 228 -72 182 -96 z m 129 410 l 335 410 l 335 613 l 129 613 z "},"<":{"ha":707,"x_min":0,"x_max":0,"o":"m 621 133 l 621 297 l 271 450 l 621 594 l 621 763 l 74 519 l 74 376 z "},"=":{"ha":765,"x_min":0,"x_max":0,"o":"m 90 522 l 675 522 l 675 682 l 90 682 z m 90 235 l 675 235 l 675 394 l 90 394 z "},">":{"ha":707,"x_min":0,"x_max":0,"o":"m 88 133 l 635 376 l 635 519 l 88 763 l 88 599 l 436 446 l 88 301 z "},"?":{"ha":783,"x_min":0,"x_max":0,"o":"m 38 838 l 178 764 b 394 910 215 856 278 910 b 528 797 486 910 528 865 b 439 671 528 733 488 700 b 258 399 347 617 258 543 l 258 336 l 422 336 l 422 382 b 565 564 422 468 460 500 b 719 808 657 619 719 679 b 403 1064 719 953 613 1064 b 38 838 210 1064 82 974 z m 240 0 l 446 0 l 446 203 l 240 203 z "},"@":{"ha":1299,"x_min":0,"x_max":0,"o":"m 608 -225 b 969 -115 769 -225 863 -190 l 906 -24 b 619 -110 819 -76 757 -110 b 199 332 347 -110 199 88 b 678 804 199 619 408 804 b 1113 407 947 804 1113 656 b 968 157 1113 239 1044 157 b 906 229 926 157 906 181 b 910 268 906 240 907 253 l 972 649 l 811 649 l 794 568 b 628 664 774 619 725 664 b 326 279 467 664 326 521 b 550 26 326 133 413 26 b 769 158 640 26 717 68 b 953 42 793 79 857 42 b 1232 407 1088 42 1232 132 b 676 919 1232 710 994 919 b 72 331 353 919 72 678 b 608 -225 72 29 276 -225 z m 593 165 b 494 289 528 165 494 211 b 658 528 494 418 556 528 b 764 404 729 528 764 483 b 763 369 764 393 764 382 b 593 165 749 238 686 165 z "},"A":{"ha":996,"x_min":0,"x_max":0,"o":"m 301 244 l 685 244 l 764 0 l 957 0 l 607 1046 l 401 1046 l 39 0 l 219 0 z m 632 406 l 356 406 l 496 821 z "},"B":{"ha":1106,"x_min":0,"x_max":0,"o":"m 826 536 b 993 751 931 567 993 633 b 647 1046 993 963 829 1046 l 135 1046 l 135 0 l 678 0 b 1025 296 885 0 1025 86 b 826 536 1025 436 947 507 z m 319 167 l 319 450 l 671 450 b 829 304 765 450 829 403 b 667 167 829 206 756 167 z m 319 617 l 319 879 l 638 879 b 797 753 728 879 797 851 b 639 617 797 651 735 617 z "},"C":{"ha":1086,"x_min":0,"x_max":0,"o":"m 1029 263 l 868 350 b 599 156 825 236 754 156 b 290 526 374 156 290 294 b 597 893 290 743 378 893 b 860 686 747 893 818 800 l 1022 776 b 597 1064 960 954 815 1064 b 86 525 268 1064 86 832 b 592 -18 86 208 256 -18 b 1029 263 843 -18 974 111 z "},"D":{"ha":1128,"x_min":0,"x_max":0,"o":"m 135 0 l 553 0 b 1042 525 929 0 1042 243 b 556 1046 1042 815 882 1046 l 135 1046 z m 325 876 l 564 876 b 850 526 744 876 850 744 b 565 168 850 285 743 168 l 325 168 z "},"E":{"ha":1056,"x_min":0,"x_max":0,"o":"m 325 450 l 849 450 l 849 618 l 325 618 l 325 874 l 942 874 l 942 1046 l 135 1046 l 135 0 l 968 0 l 968 172 l 325 172 z "},"F":{"ha":985,"x_min":0,"x_max":0,"o":"m 325 444 l 810 444 l 810 617 l 325 617 l 325 874 l 897 874 l 897 1046 l 135 1046 l 135 0 l 325 0 z "},"G":{"ha":1169,"x_min":0,"x_max":0,"o":"m 921 114 l 963 -14 l 1056 -14 l 1056 564 l 650 564 l 650 404 l 878 404 l 878 368 b 606 150 878 250 790 150 b 290 526 371 150 290 294 b 606 893 290 743 385 893 b 886 711 754 893 838 836 l 1053 803 b 611 1064 975 979 825 1064 b 86 525 279 1064 86 839 b 590 -18 86 208 247 -18 b 921 114 753 -18 850 26 z "},"H":{"ha":1149,"x_min":0,"x_max":0,"o":"m 824 622 l 325 622 l 325 1046 l 135 1046 l 135 0 l 325 0 l 325 450 l 824 450 l 824 0 l 1014 0 l 1014 1046 l 824 1046 z "},"I":{"ha":493,"x_min":0,"x_max":0,"o":"m 151 1046 l 151 0 l 342 0 l 342 1046 z "},"J":{"ha":824,"x_min":0,"x_max":0,"o":"m 58 367 l 58 314 b 385 -18 58 100 165 -18 b 704 356 617 -18 704 111 l 704 1046 l 514 1046 l 514 340 b 374 151 514 203 472 151 b 239 332 279 151 239 206 l 239 367 z "},"K":{"ha":1033,"x_min":0,"x_max":0,"o":"m 583 611 l 957 1046 l 733 1046 l 325 558 l 325 1046 l 135 1046 l 135 0 l 325 0 l 325 333 l 450 471 l 764 0 l 993 0 z "},"L":{"ha":967,"x_min":0,"x_max":0,"o":"m 325 172 l 325 1046 l 135 1046 l 135 0 l 904 0 l 904 172 z "},"M":{"ha":1318,"x_min":0,"x_max":0,"o":"m 1183 1046 l 926 1046 l 660 326 l 399 1046 l 135 1046 l 135 0 l 306 0 l 306 790 l 588 0 l 713 0 l 1001 790 l 1001 0 l 1183 0 z "},"N":{"ha":1118,"x_min":0,"x_max":0,"o":"m 811 324 l 356 1046 l 135 1046 l 135 0 l 307 0 l 307 783 l 793 0 l 983 0 l 983 1046 l 811 1046 z "},"O":{"ha":1218,"x_min":0,"x_max":0,"o":"m 86 525 b 614 -18 86 208 293 -18 b 1132 528 951 -18 1132 208 b 608 1064 1132 838 925 1064 b 86 525 290 1064 86 825 z m 608 893 b 928 529 814 893 928 747 b 610 156 928 271 824 156 b 290 526 403 156 290 294 b 608 893 290 743 403 893 z "},"P":{"ha":1058,"x_min":0,"x_max":0,"o":"m 660 1046 l 135 1046 l 135 0 l 325 0 l 325 436 l 656 436 b 1001 744 856 436 1001 535 b 660 1046 1001 947 846 1046 z m 325 603 l 325 872 l 647 872 b 806 739 735 872 806 839 b 651 603 806 636 736 603 z "},"Q":{"ha":1218,"x_min":0,"x_max":0,"o":"m 1021 158 b 1132 528 1094 254 1132 382 b 608 1064 1132 838 925 1064 b 86 525 290 1064 86 825 b 614 -18 86 208 293 -18 b 886 44 722 -18 813 4 l 997 -68 l 1118 58 z m 756 178 b 610 156 714 163 667 156 b 290 526 403 156 290 294 b 608 893 290 743 403 893 b 928 529 814 893 928 747 b 886 293 928 429 914 351 l 757 425 l 636 299 z "},"R":{"ha":1096,"x_min":0,"x_max":0,"o":"m 799 494 b 988 750 913 526 988 600 b 624 1046 988 958 822 1046 l 135 1046 l 135 0 l 325 0 l 325 431 l 553 431 b 757 213 710 431 746 361 b 800 0 767 86 779 33 l 1006 0 l 1006 6 b 956 236 978 44 961 107 b 799 494 949 376 893 458 z m 325 594 l 325 872 l 632 872 b 797 738 721 872 797 836 b 617 594 797 633 739 594 z "},"S":{"ha":1025,"x_min":0,"x_max":0,"o":"m 490 1064 b 83 760 225 1064 83 942 b 471 447 83 528 263 482 b 764 285 679 413 764 393 b 535 151 764 193 685 151 b 224 335 350 151 275 221 l 50 257 b 525 -18 101 90 258 -18 b 961 285 786 -18 961 68 b 543 629 961 526 793 589 b 272 771 358 658 272 668 b 489 899 272 857 335 899 b 774 732 638 899 722 831 l 932 833 b 490 1064 860 978 721 1064 z "},"T":{"ha":1042,"x_min":0,"x_max":0,"o":"m 613 874 l 979 874 l 979 1046 l 63 1046 l 63 874 l 422 874 l 422 0 l 613 0 z "},"U":{"ha":1118,"x_min":0,"x_max":0,"o":"m 565 -18 b 999 397 876 -18 999 114 l 999 1046 l 808 1046 l 808 382 b 564 149 808 208 729 149 b 310 372 403 149 310 204 l 310 1046 l 119 1046 l 119 406 b 565 -18 119 106 272 -18 z "},"V":{"ha":990,"x_min":0,"x_max":0,"o":"m 957 1046 l 761 1046 l 510 279 l 243 1046 l 33 1046 l 415 0 l 601 0 z "},"W":{"ha":1479,"x_min":0,"x_max":0,"o":"m 732 790 l 944 0 l 1143 0 l 1443 1046 l 1250 1046 l 1044 286 l 840 1046 l 639 1046 l 432 285 l 240 1046 l 36 1046 l 314 0 l 521 0 z "},"X":{"ha":954,"x_min":0,"x_max":0,"o":"m 363 540 l 40 0 l 238 0 l 461 383 l 694 0 l 914 0 l 585 536 l 886 1046 l 689 1046 l 485 694 l 271 1046 l 51 1046 z "},"Y":{"ha":978,"x_min":0,"x_max":0,"o":"m 404 388 l 404 0 l 594 0 l 594 403 l 953 1046 l 747 1046 l 500 590 l 246 1046 l 25 1046 z "},"Z":{"ha":1008,"x_min":0,"x_max":0,"o":"m 701 881 l 75 172 l 75 0 l 929 0 l 929 165 l 307 165 l 939 883 l 939 1046 l 97 1046 l 97 881 z "},"[":{"ha":604,"x_min":0,"x_max":0,"o":"m 308 969 l 526 969 l 526 1110 l 136 1110 l 136 -231 l 526 -231 l 526 -90 l 308 -90 z "},"\\":{"ha":590,"x_min":0,"x_max":0,"o":"m 435 -206 l 603 -206 l 183 1129 l 17 1129 z "},"]":{"ha":604,"x_min":0,"x_max":0,"o":"m 296 -90 l 78 -90 l 78 -231 l 468 -231 l 468 1110 l 78 1110 l 78 969 l 296 969 z "},"^":{"ha":683,"x_min":0,"x_max":0,"o":"m 32 508 l 186 508 l 346 863 l 493 508 l 651 508 l 408 1046 l 275 1046 z "},"_":{"ha":557,"x_min":0,"x_max":0,"o":"m -1 -211 l 558 -211 l 558 -75 l -1 -75 z "},"`":{"ha":824,"x_min":0,"x_max":0,"o":"m 358 854 l 471 854 l 378 1065 l 156 1065 z "},"a":{"ha":811,"x_min":0,"x_max":0,"o":"m 531 467 b 51 197 215 444 51 386 b 299 -12 51 43 171 -12 b 538 97 431 -12 493 31 b 683 -12 556 31 599 -12 b 765 -7 711 -12 749 -10 l 789 129 l 786 129 b 751 125 775 126 763 125 b 697 181 721 125 697 139 l 697 501 b 410 757 697 682 571 757 b 69 581 253 757 136 708 l 193 500 b 392 613 232 583 300 613 b 531 499 475 613 531 588 z m 531 342 l 531 297 b 322 125 531 193 433 125 b 214 207 251 125 214 153 b 531 342 214 307 340 328 z "},"b":{"ha":865,"x_min":0,"x_max":0,"o":"m 490 -18 b 808 379 703 -18 808 139 b 503 757 808 626 668 757 b 271 633 381 757 317 706 l 271 1053 l 104 1053 l 104 0 l 271 0 l 268 94 b 490 -18 301 38 368 -18 z m 267 378 b 460 614 267 536 349 614 b 643 376 583 614 643 529 b 467 125 643 218 593 125 b 267 378 342 125 267 197 z "},"c":{"ha":767,"x_min":0,"x_max":0,"o":"m 579 482 l 719 554 b 418 757 676 688 569 757 b 57 376 204 757 57 606 b 407 -12 57 138 203 -12 b 729 178 583 -12 675 61 l 593 263 b 414 128 561 175 510 128 b 225 385 285 128 225 226 b 414 618 225 542 299 618 b 579 482 501 618 549 572 z "},"d":{"ha":865,"x_min":0,"x_max":0,"o":"m 374 -18 b 597 106 497 -18 564 49 l 594 0 l 761 0 l 761 1053 l 594 1053 l 594 654 b 374 757 553 717 488 757 b 57 379 189 757 57 619 b 374 -18 57 133 172 -18 z m 599 378 b 399 125 599 203 524 125 b 222 376 276 125 222 219 b 406 614 222 540 285 614 b 599 378 519 614 599 543 z "},"e":{"ha":796,"x_min":0,"x_max":0,"o":"m 222 335 l 736 335 b 400 757 736 638 597 757 b 57 376 200 757 57 610 b 406 -12 57 118 204 -12 b 733 206 606 -12 697 81 l 592 257 b 411 129 563 171 508 129 b 222 335 285 129 232 199 z m 226 463 b 400 621 244 572 303 621 b 560 463 500 621 551 561 z "},"f":{"ha":514,"x_min":0,"x_max":0,"o":"m 158 600 l 158 0 l 325 0 l 325 600 l 467 600 l 467 742 l 325 742 l 325 846 b 393 914 325 896 354 914 b 464 889 417 914 446 906 l 468 889 l 494 1019 b 365 1057 468 1042 425 1057 b 158 833 236 1057 158 978 l 158 742 l 43 742 l 43 600 z "},"g":{"ha":794,"x_min":0,"x_max":0,"o":"m 614 653 b 383 754 569 713 483 754 b 96 489 215 754 96 651 b 183 303 96 408 128 344 b 51 165 101 279 51 233 b 171 28 51 88 89 43 b 42 -99 96 6 42 -29 b 392 -265 42 -218 165 -265 b 760 -44 643 -265 760 -197 b 676 118 760 36 731 88 b 415 150 625 147 544 150 b 189 200 232 150 189 157 b 272 247 189 232 232 247 b 375 242 313 247 317 242 b 664 489 549 242 664 326 b 660 546 664 508 660 526 b 722 608 660 578 692 608 b 761 589 739 608 753 600 l 764 589 l 796 731 b 744 750 788 740 767 750 b 614 653 692 750 644 724 z m 383 625 b 514 494 474 625 514 564 b 381 371 514 422 471 371 b 246 492 292 371 246 414 b 383 625 246 567 289 625 z m 193 -64 b 382 0 193 -11 246 0 b 576 -11 486 0 547 0 b 601 -58 594 -18 601 -40 b 400 -131 601 -101 558 -131 b 193 -64 238 -131 193 -112 z "},"h":{"ha":851,"x_min":0,"x_max":0,"o":"m 104 1053 l 104 0 l 271 0 l 271 390 b 453 613 271 543 349 613 b 588 449 549 613 588 549 l 588 0 l 754 0 l 754 488 b 500 757 754 685 607 757 b 271 626 369 757 307 690 l 271 1053 z "},"i":{"ha":386,"x_min":0,"x_max":0,"o":"m 110 742 l 110 0 l 276 0 l 276 742 z m 104 1053 l 104 867 l 282 867 l 282 1053 z "},"j":{"ha":386,"x_min":0,"x_max":0,"o":"m 276 -56 l 276 742 l 110 742 l 110 -56 b 53 -114 110 -93 83 -114 b -18 -93 26 -114 4 -108 l -21 -93 l -36 -231 b 94 -261 -7 -246 31 -261 b 276 -56 200 -261 276 -196 z m 104 1053 l 104 867 l 282 867 l 282 1053 z "},"k":{"ha":819,"x_min":0,"x_max":0,"o":"m 271 210 l 382 329 l 588 0 l 783 0 l 501 447 l 757 742 l 568 742 l 271 404 l 271 1053 l 104 1053 l 104 0 l 271 0 z "},"l":{"ha":394,"x_min":0,"x_max":0,"o":"m 114 1053 l 114 0 l 281 0 l 281 1053 z "},"m":{"ha":1318,"x_min":0,"x_max":0,"o":"m 711 618 b 496 757 665 715 576 757 b 268 622 365 757 303 685 l 271 742 l 104 742 l 104 0 l 271 0 l 271 390 b 449 613 271 543 344 613 b 579 449 544 613 579 549 l 579 0 l 746 0 l 746 390 b 924 613 746 543 819 613 b 1054 449 1019 613 1054 549 l 1054 0 l 1221 0 l 1221 488 b 971 757 1221 685 1078 757 b 711 618 847 757 768 714 z "},"n":{"ha":851,"x_min":0,"x_max":0,"o":"m 104 742 l 104 0 l 271 0 l 271 390 b 453 613 271 543 349 613 b 588 449 549 613 588 549 l 588 0 l 754 0 l 754 488 b 500 757 754 685 607 757 b 268 622 369 757 303 688 l 271 742 z "},"o":{"ha":824,"x_min":0,"x_max":0,"o":"m 413 760 b 57 371 207 760 57 615 b 413 -18 57 136 199 -18 b 767 372 633 -18 767 119 b 413 760 767 614 625 760 z m 414 628 b 601 371 546 628 601 514 b 410 115 601 221 558 115 b 222 382 271 115 222 232 b 414 628 222 528 281 628 z "},"p":{"ha":865,"x_min":0,"x_max":0,"o":"m 489 -12 b 808 379 706 -12 808 139 b 503 757 808 626 668 757 b 268 625 381 757 310 700 l 271 742 l 104 742 l 104 -253 l 271 -253 l 271 90 b 489 -12 303 40 368 -12 z m 267 378 b 460 614 267 536 349 614 b 643 376 583 614 643 529 b 467 131 643 218 594 131 b 267 378 342 131 267 197 z "},"q":{"ha":865,"x_min":0,"x_max":0,"o":"m 378 -12 b 594 103 497 -12 561 49 l 594 -253 l 761 -253 l 761 742 l 594 742 l 597 651 b 374 757 553 717 488 757 b 57 379 188 757 57 619 b 378 -12 57 133 171 -12 z m 599 378 b 399 131 599 203 524 131 b 222 376 276 131 222 221 b 406 614 222 540 285 614 b 599 378 519 614 599 543 z "},"r":{"ha":569,"x_min":0,"x_max":0,"o":"m 104 742 l 104 0 l 271 0 l 271 381 b 397 585 271 485 313 585 b 479 543 443 585 464 565 l 485 543 l 546 707 b 429 753 524 731 485 753 b 268 613 342 753 293 694 l 271 742 z "},"s":{"ha":749,"x_min":0,"x_max":0,"o":"m 356 757 b 74 539 199 757 74 692 b 354 303 74 360 206 328 b 526 211 476 282 526 272 b 386 128 526 150 465 128 b 172 256 271 128 215 182 l 44 181 b 389 -14 101 57 217 -14 b 688 218 608 -14 688 83 b 401 457 688 396 544 438 b 232 543 283 472 232 485 b 364 618 232 590 271 618 b 551 514 446 618 510 582 l 671 604 b 356 757 606 701 507 757 z "},"t":{"ha":549,"x_min":0,"x_max":0,"o":"m 332 600 l 488 600 l 488 742 l 332 742 l 332 992 l 328 992 b 165 847 271 928 222 886 l 165 742 l 38 742 l 38 600 l 165 600 l 165 188 b 360 -18 165 47 239 -18 b 483 4 418 -18 456 -8 l 493 156 l 489 156 b 392 128 469 139 438 128 b 332 183 353 128 332 147 z "},"u":{"ha":851,"x_min":0,"x_max":0,"o":"m 747 0 l 747 742 l 581 742 l 581 351 b 399 129 581 199 503 129 b 264 293 303 129 264 193 l 264 742 l 97 742 l 97 254 b 351 -15 97 57 244 -15 b 583 119 482 -15 549 57 l 581 0 z "},"v":{"ha":760,"x_min":0,"x_max":0,"o":"m 40 742 l 288 0 l 481 0 l 719 742 l 557 742 l 388 185 l 215 742 z "},"w":{"ha":1171,"x_min":0,"x_max":0,"o":"m 667 742 l 496 742 l 347 226 l 214 742 l 40 742 l 251 0 l 422 0 l 578 551 l 728 0 l 899 0 l 1131 742 l 963 742 l 814 226 z "},"x":{"ha":769,"x_min":0,"x_max":0,"o":"m 378 253 l 538 0 l 733 0 l 476 396 l 701 742 l 521 742 l 386 529 l 253 742 l 57 742 l 288 385 l 36 0 l 217 0 z "},"y":{"ha":739,"x_min":0,"x_max":0,"o":"m 296 10 l 271 -53 b 165 -126 249 -111 210 -126 b 93 -104 135 -126 108 -118 l 90 -104 l 47 -244 b 186 -275 81 -264 131 -275 b 332 -233 239 -275 294 -262 b 433 -81 381 -196 414 -139 l 699 742 l 536 742 l 382 233 l 218 742 l 40 742 z "},"z":{"ha":725,"x_min":0,"x_max":0,"o":"m 446 600 l 58 136 l 58 0 l 671 0 l 671 140 l 264 140 l 661 618 l 661 742 l 94 742 l 94 600 z "},"{":{"ha":626,"x_min":0,"x_max":0,"o":"m 543 -232 l 554 -90 b 375 49 419 -72 375 -43 b 394 258 375 115 394 179 b 249 446 394 347 351 419 b 394 633 351 472 394 544 b 375 829 394 715 375 765 b 554 967 375 921 419 950 l 543 1110 b 199 849 307 1094 199 1017 b 222 650 199 781 222 721 b 54 518 222 575 190 518 l 35 518 l 35 375 l 53 375 b 222 240 189 375 222 317 b 199 29 222 171 199 101 b 543 -232 199 -139 307 -218 z "},"|":{"ha":385,"x_min":0,"x_max":0,"o":"m 113 -206 l 272 -206 l 272 1129 l 113 1129 z "},"}":{"ha":626,"x_min":0,"x_max":0,"o":"m 83 -232 b 428 29 319 -218 428 -139 b 404 240 428 101 404 171 b 574 375 404 317 438 375 l 592 375 l 592 518 l 572 518 b 404 650 436 518 404 575 b 428 849 404 721 428 781 b 83 1110 428 1017 319 1094 l 72 967 b 251 829 207 950 251 921 b 232 633 251 765 232 715 b 378 446 232 544 275 472 b 232 258 275 419 232 347 b 251 49 232 179 251 115 b 72 -90 251 -43 207 -72 z "},"~":{"ha":717,"x_min":0,"x_max":0,"o":"m 468 311 b 663 531 571 311 646 400 l 524 542 b 458 468 517 496 500 468 b 253 551 397 468 354 551 b 54 329 151 551 74 471 l 194 317 b 263 394 201 365 221 394 b 468 311 317 394 365 311 z "}," ":{"ha":343,"x_min":0,"x_max":0,"o":""},"¡":{"ha":442,"x_min":0,"x_max":0,"o":"m 319 -253 l 319 53 l 268 457 l 174 457 l 122 53 l 122 -253 z m 324 793 l 118 793 l 118 590 l 324 590 z "},"¢":{"ha":783,"x_min":0,"x_max":0,"o":"m 467 614 b 582 482 522 599 558 556 l 719 554 b 467 754 681 672 592 740 l 467 919 l 358 919 l 358 753 b 57 376 178 728 57 583 b 358 -10 57 157 181 13 l 358 -185 l 467 -185 l 467 -10 b 729 178 604 6 682 75 l 596 263 b 467 131 569 189 531 146 z m 358 132 b 221 385 263 157 221 250 b 358 614 221 517 271 593 z "},"£":{"ha":954,"x_min":0,"x_max":0,"o":"m 254 475 b 321 321 281 425 306 375 b 226 343 290 335 260 343 b 38 160 129 343 38 275 b 235 -21 38 40 126 -21 b 435 71 311 -21 386 14 b 658 -14 492 25 563 -14 b 914 269 819 -14 893 93 l 746 290 b 631 154 733 204 706 154 b 489 211 582 154 536 179 l 489 221 b 435 475 489 308 463 393 l 664 475 l 664 593 l 392 593 b 356 758 371 651 356 707 b 519 900 356 854 419 900 b 718 749 629 900 678 850 l 885 825 b 522 1064 828 969 728 1064 b 161 758 310 1064 161 949 b 196 593 161 699 176 644 l 86 593 l 86 475 z m 335 175 b 240 108 318 126 274 108 b 179 167 201 108 179 132 b 242 218 179 199 204 218 b 335 175 274 218 304 203 z "},"¤":{"ha":815,"x_min":0,"x_max":0,"o":"m 544 271 l 651 157 l 761 260 l 656 372 b 692 532 678 415 692 467 b 653 678 692 586 676 636 l 761 792 l 651 896 l 543 778 b 407 810 504 799 457 810 b 274 779 357 810 311 799 l 164 896 l 56 792 l 163 678 b 124 522 138 633 124 581 b 161 372 124 465 136 414 l 56 260 l 164 157 l 272 271 b 406 238 310 250 356 238 b 544 271 458 238 506 250 z m 407 361 b 275 528 322 361 275 424 b 407 688 275 631 325 688 b 542 525 493 688 542 626 b 407 361 542 418 494 361 z "},"¥":{"ha":956,"x_min":0,"x_max":0,"o":"m 594 433 l 854 433 l 854 551 l 658 551 l 928 1046 l 731 1046 l 488 578 l 239 1046 l 28 1046 l 299 551 l 111 551 l 111 433 l 363 433 l 383 396 l 383 325 l 111 325 l 111 207 l 383 207 l 383 0 l 574 0 l 574 207 l 854 207 l 854 325 l 574 325 l 574 396 z "},"¦":{"ha":385,"x_min":0,"x_max":0,"o":"m 113 539 l 272 539 l 272 1129 l 113 1129 z m 272 381 l 113 381 l 113 -206 l 272 -206 z "},"§":{"ha":839,"x_min":0,"x_max":0,"o":"m 417 -185 b 707 49 579 -185 707 -118 b 619 208 707 124 671 176 b 779 411 736 253 779 313 b 478 658 779 568 664 622 b 286 783 326 688 286 715 b 421 875 286 839 332 875 b 599 769 508 875 561 839 l 724 849 b 415 1010 658 958 560 1010 b 132 783 265 1010 132 936 b 232 596 132 690 171 632 b 60 397 115 564 60 501 b 361 156 60 251 185 189 b 551 40 514 126 551 106 b 411 -50 551 -17 507 -50 b 226 63 315 -50 257 -15 l 99 -1 b 417 -185 158 -133 269 -185 z m 626 394 b 490 292 626 339 583 292 b 213 418 294 292 213 335 b 340 518 213 471 260 518 b 626 394 538 518 626 479 z "},"¨":{"ha":808,"x_min":0,"x_max":0,"o":"m 451 868 l 613 868 l 613 1029 l 451 1029 z m 196 868 l 357 868 l 357 1029 l 196 1029 z "},"©":{"ha":1233,"x_min":0,"x_max":0,"o":"m 615 -12 b 1156 525 918 -12 1156 221 b 618 1061 1156 824 924 1061 b 78 522 315 1061 78 822 b 615 -12 78 218 317 -12 z m 615 75 b 172 522 368 75 172 257 b 618 974 172 786 361 974 b 1060 525 872 974 1060 788 b 615 75 1060 260 865 75 z m 614 188 b 904 374 767 188 856 258 l 776 438 b 622 326 753 367 700 326 b 460 526 526 326 460 397 b 622 725 460 657 526 725 b 769 618 699 725 743 692 l 894 682 b 617 863 849 799 758 863 b 301 525 436 863 301 718 b 614 188 301 332 426 188 z "},"ª":{"ha":675,"x_min":0,"x_max":0,"o":"m 435 772 b 46 550 183 751 46 704 b 247 374 46 421 146 374 b 443 464 351 374 407 413 b 567 374 460 411 497 374 b 633 381 588 374 615 376 l 653 493 l 644 493 b 617 489 635 490 625 489 b 578 529 594 489 578 499 l 578 797 b 338 1010 578 947 469 1010 b 60 861 208 1010 117 969 l 172 794 b 324 888 204 861 249 888 b 435 794 394 888 435 863 z m 190 558 b 435 660 190 635 285 647 l 435 631 b 267 496 435 549 354 496 b 190 558 219 496 190 517 z "},"«":{"ha":751,"x_min":0,"x_max":0,"o":"m 514 54 l 679 54 l 513 335 l 679 615 l 514 615 l 346 335 z m 232 54 l 397 54 l 231 335 l 397 615 l 232 615 l 64 335 z "},"¬":{"ha":651,"x_min":0,"x_max":0,"o":"m 407 214 l 557 214 l 557 560 l 75 560 l 75 422 l 407 422 z "},"­":{"ha":567,"x_min":0,"x_max":0,"o":"m 90 303 l 463 303 l 463 467 l 90 467 z "},"®":{"ha":792,"x_min":0,"x_max":0,"o":"m 396 383 b 736 722 586 383 736 529 b 397 1060 736 911 589 1060 b 56 721 206 1060 56 910 b 396 383 56 528 207 383 z m 396 453 b 132 721 246 453 132 561 b 397 990 132 881 240 990 b 660 722 553 990 660 881 b 396 453 660 563 549 453 z m 258 557 l 343 557 l 343 685 l 397 685 b 451 639 424 685 446 676 b 469 557 460 586 465 565 l 558 557 l 558 561 b 547 588 554 564 551 571 b 525 672 539 618 535 651 b 478 711 515 696 497 707 b 553 797 517 721 553 744 b 426 899 553 858 507 899 l 258 899 z m 343 750 l 343 833 l 418 833 b 469 793 450 833 469 821 b 415 750 469 763 451 750 z "},"¯":{"ha":694,"x_min":0,"x_max":0,"o":"m 140 868 l 554 868 l 554 992 l 140 992 z "},"°":{"ha":579,"x_min":0,"x_max":0,"o":"m 289 538 b 524 774 428 538 524 639 b 290 1010 524 907 429 1010 b 56 771 151 1010 56 906 b 289 538 56 639 151 538 z m 290 642 b 178 776 224 642 178 693 b 290 907 178 858 224 907 b 404 774 357 907 404 853 b 290 642 404 690 357 642 z "},"±":{"ha":765,"x_min":0,"x_max":0,"o":"m 460 474 l 675 474 l 675 632 l 460 632 l 460 835 l 307 835 l 307 632 l 90 632 l 90 474 l 307 474 l 307 271 l 460 271 z m 90 0 l 675 0 l 675 158 l 90 158 z "},"²":{"ha":572,"x_min":0,"x_max":0,"o":"m 39 479 l 519 479 l 519 593 l 229 593 b 343 678 235 624 264 642 b 522 878 432 718 522 760 b 292 1056 522 989 443 1056 b 42 872 150 1056 74 982 l 161 831 b 289 944 179 904 219 944 b 379 875 340 944 379 926 b 233 749 379 806 318 794 b 39 479 103 678 44 606 z "},"³":{"ha":579,"x_min":0,"x_max":0,"o":"m 42 629 b 293 467 64 533 157 467 b 533 640 446 467 533 539 b 440 774 533 717 494 750 b 522 893 485 794 522 828 b 294 1057 522 989 444 1057 b 56 889 179 1057 83 997 l 169 849 b 293 947 186 917 225 947 b 382 882 357 947 382 924 b 306 818 382 838 353 818 l 235 818 l 235 711 l 296 711 b 388 647 367 711 388 689 b 292 579 388 606 358 579 b 161 679 213 579 183 610 z "},"´":{"ha":824,"x_min":0,"x_max":0,"o":"m 335 854 l 447 854 l 651 1065 l 428 1065 z "},"µ":{"ha":858,"x_min":0,"x_max":0,"o":"m 104 742 l 104 -253 l 271 -253 l 271 13 b 368 -15 293 -6 331 -15 b 590 119 493 -15 556 57 l 588 0 l 754 0 l 754 742 l 588 742 l 588 351 b 406 129 588 199 510 129 b 271 293 310 129 271 193 l 271 742 z "},"¶":{"ha":1011,"x_min":0,"x_max":0,"o":"m 461 0 l 617 0 l 617 894 l 732 894 l 732 0 l 888 0 l 888 894 l 978 894 l 978 1046 l 407 1046 b 58 743 211 1046 58 946 b 407 451 58 546 201 451 l 461 451 z "},"·":{"ha":442,"x_min":0,"x_max":0,"o":"m 118 354 l 324 354 l 324 557 l 118 557 z "},"¸":{"ha":690,"x_min":0,"x_max":0,"o":"m 407 -321 b 576 -193 501 -321 576 -281 b 433 -60 576 -107 510 -60 b 369 -78 406 -60 383 -68 l 369 0 l 282 0 l 282 -158 l 357 -158 b 414 -132 368 -142 383 -132 b 468 -190 450 -132 468 -153 b 401 -244 468 -228 440 -244 b 318 -199 358 -244 332 -225 l 240 -240 b 407 -321 272 -293 329 -321 z "},"¹":{"ha":349,"x_min":0,"x_max":0,"o":"m 165 1046 b 26 921 150 979 101 936 l 26 817 b 136 849 69 819 117 833 l 136 479 l 276 479 l 276 1046 z "},"º":{"ha":701,"x_min":0,"x_max":0,"o":"m 644 693 b 350 1010 644 889 525 1010 b 57 690 182 1010 57 892 b 350 368 57 510 164 368 b 644 693 532 368 644 481 z m 204 696 b 351 892 204 813 246 892 b 497 689 456 892 497 800 b 349 485 497 569 465 485 b 204 696 239 485 204 579 z "},"»":{"ha":753,"x_min":0,"x_max":0,"o":"m 354 54 l 519 54 l 689 335 l 519 615 l 354 615 l 522 335 z m 72 54 l 238 54 l 407 335 l 238 615 l 72 615 l 240 335 z "},"¼":{"ha":1138,"x_min":0,"x_max":0,"o":"m 165 1046 b 26 921 150 979 101 936 l 26 817 b 136 849 69 819 117 833 l 136 479 l 276 479 l 276 1046 z m 135 0 l 267 0 l 933 1046 l 801 1046 z m 865 0 l 1001 0 l 1001 114 l 1101 114 l 1101 219 l 1001 219 l 1001 567 l 863 567 b 585 219 806 471 674 317 l 585 114 l 865 114 z m 714 219 b 868 408 769 275 833 353 l 868 219 z "},"½":{"ha":1174,"x_min":0,"x_max":0,"o":"m 165 1046 b 26 921 150 979 101 936 l 26 817 b 136 849 69 819 117 833 l 136 479 l 276 479 l 276 1046 z m 114 0 l 246 0 l 913 1046 l 781 1046 z m 640 0 l 1121 0 l 1121 114 l 831 114 b 944 199 836 144 865 163 b 1124 399 1033 239 1124 281 b 893 576 1124 510 1044 576 b 643 393 751 576 675 503 l 763 351 b 890 465 781 425 821 465 b 981 396 942 465 981 447 b 835 269 981 326 919 315 b 640 0 704 199 646 126 z "},"¾":{"ha":1235,"x_min":0,"x_max":0,"o":"m 42 629 b 293 467 64 533 157 467 b 533 640 446 467 533 539 b 440 774 533 717 494 750 b 522 893 485 794 522 828 b 294 1057 522 989 444 1057 b 56 889 179 1057 83 997 l 169 849 b 293 947 186 917 225 947 b 382 882 357 947 382 924 b 306 818 382 838 353 818 l 235 818 l 235 711 l 296 711 b 388 647 367 711 388 689 b 292 579 388 606 358 579 b 161 679 213 579 183 610 z m 264 0 l 396 0 l 1063 1046 l 931 1046 z m 963 0 l 1099 0 l 1099 114 l 1199 114 l 1199 219 l 1099 219 l 1099 567 l 960 567 b 682 219 903 471 771 317 l 682 114 l 963 114 z m 811 219 b 965 408 867 275 931 353 l 965 219 z "},"¿":{"ha":783,"x_min":0,"x_max":0,"o":"m 746 -44 l 606 29 b 389 -117 568 -62 506 -117 b 256 -4 297 -117 256 -72 b 344 122 256 60 296 93 b 525 394 436 176 525 250 l 525 457 l 361 457 l 361 411 b 218 229 361 325 324 293 b 64 -15 126 174 64 114 b 381 -271 64 -160 171 -271 b 746 -44 574 -271 701 -181 z m 543 793 l 338 793 l 338 590 l 543 590 z "},"À":{"ha":996,"x_min":0,"x_max":0,"o":"m 301 244 l 685 244 l 764 0 l 957 0 l 607 1046 l 401 1046 l 39 0 l 219 0 z m 632 406 l 356 406 l 496 821 z m 457 1115 l 569 1115 l 476 1326 l 254 1326 z "},"Á":{"ha":996,"x_min":0,"x_max":0,"o":"m 301 244 l 685 244 l 764 0 l 957 0 l 607 1046 l 401 1046 l 39 0 l 219 0 z m 632 406 l 356 406 l 496 821 z m 429 1115 l 542 1115 l 746 1326 l 522 1326 z "},"Â":{"ha":996,"x_min":0,"x_max":0,"o":"m 301 244 l 685 244 l 764 0 l 957 0 l 607 1046 l 401 1046 l 39 0 l 219 0 z m 632 406 l 356 406 l 496 821 z m 278 1115 l 382 1115 l 503 1224 l 622 1115 l 731 1115 l 590 1332 l 418 1332 z "},"Ã":{"ha":996,"x_min":0,"x_max":0,"o":"m 301 244 l 685 244 l 764 0 l 957 0 l 607 1046 l 401 1046 l 39 0 l 219 0 z m 632 406 l 356 406 l 496 821 z m 589 1124 b 749 1299 678 1124 735 1193 l 632 1308 b 586 1251 626 1272 619 1251 b 419 1307 536 1251 503 1307 b 258 1129 333 1307 274 1243 l 368 1119 b 422 1179 375 1157 390 1179 b 589 1124 469 1179 507 1124 z "},"Ä":{"ha":996,"x_min":0,"x_max":0,"o":"m 301 244 l 685 244 l 764 0 l 957 0 l 607 1046 l 401 1046 l 39 0 l 219 0 z m 632 406 l 356 406 l 496 821 z m 292 1115 l 453 1115 l 453 1276 l 292 1276 z m 547 1115 l 708 1115 l 708 1276 l 547 1276 z "},"Å":{"ha":996,"x_min":0,"x_max":0,"o":"m 301 244 l 685 244 l 764 0 l 957 0 l 614 1024 b 667 1149 647 1054 667 1100 b 499 1314 667 1246 594 1314 b 329 1146 396 1314 329 1242 b 390 1015 329 1092 351 1044 l 39 0 l 219 0 z m 632 406 l 356 406 l 496 821 z m 499 1064 b 425 1150 454 1064 425 1094 b 499 1233 425 1206 454 1233 b 572 1149 543 1233 572 1201 b 499 1064 572 1092 543 1064 z "},"Æ":{"ha":1713,"x_min":0,"x_max":0,"o":"m 1599 1046 l 714 1046 l 28 0 l 229 0 l 381 231 l 810 231 l 810 0 l 1625 0 l 1625 172 l 1000 172 l 1000 450 l 1506 450 l 1506 618 l 1000 618 l 1000 874 l 1599 874 z m 810 392 l 486 392 l 810 885 z "},"Ç":{"ha":1086,"x_min":0,"x_max":0,"o":"m 490 -11 l 490 -158 l 565 -158 b 622 -132 576 -142 592 -132 b 676 -190 658 -132 676 -153 b 610 -244 676 -228 649 -244 b 526 -199 567 -244 540 -225 l 449 -240 b 615 -321 481 -293 538 -321 b 785 -193 710 -321 785 -281 b 642 -60 785 -107 718 -60 b 578 -78 614 -60 592 -68 l 578 -18 l 592 -18 b 1029 263 843 -18 974 111 l 868 350 b 599 156 825 236 754 156 b 290 526 374 156 290 294 b 597 893 290 743 378 893 b 860 686 747 893 818 800 l 1022 776 b 597 1064 960 954 815 1064 b 86 525 268 1064 86 832 b 490 -11 86 242 222 32 z "},"È":{"ha":1056,"x_min":0,"x_max":0,"o":"m 325 450 l 849 450 l 849 618 l 325 618 l 325 874 l 942 874 l 942 1046 l 135 1046 l 135 0 l 968 0 l 968 172 l 325 172 z m 513 1115 l 625 1115 l 532 1326 l 310 1326 z "},"É":{"ha":1056,"x_min":0,"x_max":0,"o":"m 325 450 l 849 450 l 849 618 l 325 618 l 325 874 l 942 874 l 942 1046 l 135 1046 l 135 0 l 968 0 l 968 172 l 325 172 z m 453 1115 l 565 1115 l 769 1326 l 546 1326 z "},"Ê":{"ha":1056,"x_min":0,"x_max":0,"o":"m 325 450 l 849 450 l 849 618 l 325 618 l 325 874 l 942 874 l 942 1046 l 135 1046 l 135 0 l 968 0 l 968 172 l 325 172 z m 326 1115 l 431 1115 l 551 1224 l 671 1115 l 779 1115 l 639 1332 l 467 1332 z "},"Ë":{"ha":1056,"x_min":0,"x_max":0,"o":"m 325 450 l 849 450 l 849 618 l 325 618 l 325 874 l 942 874 l 942 1046 l 135 1046 l 135 0 l 968 0 l 968 172 l 325 172 z m 333 1115 l 494 1115 l 494 1276 l 333 1276 z m 589 1115 l 750 1115 l 750 1276 l 589 1276 z "},"Ì":{"ha":493,"x_min":0,"x_max":0,"o":"m 151 1046 l 151 0 l 342 0 l 342 1046 z m 206 1115 l 318 1115 l 225 1326 l 3 1326 z "},"Í":{"ha":493,"x_min":0,"x_max":0,"o":"m 151 1046 l 151 0 l 342 0 l 342 1046 z m 176 1115 l 289 1115 l 493 1326 l 269 1326 z "},"Î":{"ha":493,"x_min":0,"x_max":0,"o":"m 151 1046 l 151 0 l 342 0 l 342 1046 z m 19 1115 l 124 1115 l 244 1224 l 364 1115 l 472 1115 l 332 1332 l 160 1332 z "},"Ï":{"ha":493,"x_min":0,"x_max":0,"o":"m 151 1046 l 151 0 l 342 0 l 342 1046 z m 38 1115 l 199 1115 l 199 1276 l 38 1276 z m 293 1115 l 454 1115 l 454 1276 l 293 1276 z "},"Ð":{"ha":1128,"x_min":0,"x_max":0,"o":"m 135 438 l 135 0 l 553 0 b 1042 525 929 0 1042 243 b 556 1046 1042 815 882 1046 l 135 1046 l 135 597 l 25 597 l 25 438 z m 325 597 l 325 876 l 564 876 b 850 526 744 876 850 744 b 565 168 850 285 743 168 l 325 168 l 325 438 l 522 438 l 522 597 z "},"Ñ":{"ha":1118,"x_min":0,"x_max":0,"o":"m 811 324 l 356 1046 l 135 1046 l 135 0 l 307 0 l 307 783 l 793 0 l 983 0 l 983 1046 l 811 1046 z m 665 1124 b 825 1299 754 1124 811 1193 l 708 1308 b 663 1251 703 1272 696 1251 b 496 1307 613 1251 579 1307 b 335 1129 410 1307 350 1243 l 444 1119 b 499 1179 451 1157 467 1179 b 665 1124 546 1179 583 1124 z "},"Ò":{"ha":1218,"x_min":0,"x_max":0,"o":"m 86 525 b 614 -18 86 208 293 -18 b 1132 528 951 -18 1132 208 b 608 1064 1132 838 925 1064 b 86 525 290 1064 86 825 z m 608 893 b 928 529 814 893 928 747 b 610 156 928 271 824 156 b 290 526 403 156 290 294 b 608 893 290 743 403 893 z m 568 1115 l 681 1115 l 588 1326 l 365 1326 z "},"Ó":{"ha":1218,"x_min":0,"x_max":0,"o":"m 86 525 b 614 -18 86 208 293 -18 b 1132 528 951 -18 1132 208 b 608 1064 1132 838 925 1064 b 86 525 290 1064 86 825 z m 608 893 b 928 529 814 893 928 747 b 610 156 928 271 824 156 b 290 526 403 156 290 294 b 608 893 290 743 403 893 z m 535 1115 l 647 1115 l 851 1326 l 628 1326 z "},"Ô":{"ha":1218,"x_min":0,"x_max":0,"o":"m 86 525 b 614 -18 86 208 293 -18 b 1132 528 951 -18 1132 208 b 608 1064 1132 838 925 1064 b 86 525 290 1064 86 825 z m 608 893 b 928 529 814 893 928 747 b 610 156 928 271 824 156 b 290 526 403 156 290 294 b 608 893 290 743 403 893 z m 382 1115 l 486 1115 l 607 1224 l 726 1115 l 835 1115 l 694 1332 l 522 1332 z "},"Õ":{"ha":1218,"x_min":0,"x_max":0,"o":"m 86 525 b 614 -18 86 208 293 -18 b 1132 528 951 -18 1132 208 b 608 1064 1132 838 925 1064 b 86 525 290 1064 86 825 z m 608 893 b 928 529 814 893 928 747 b 610 156 928 271 824 156 b 290 526 403 156 290 294 b 608 893 290 743 403 893 z m 697 1124 b 857 1299 786 1124 843 1193 l 740 1308 b 694 1251 735 1272 728 1251 b 528 1307 644 1251 611 1307 b 367 1129 442 1307 382 1243 l 476 1119 b 531 1179 483 1157 499 1179 b 697 1124 578 1179 615 1124 z "},"Ö":{"ha":1218,"x_min":0,"x_max":0,"o":"m 86 525 b 614 -18 86 208 293 -18 b 1132 528 951 -18 1132 208 b 608 1064 1132 838 925 1064 b 86 525 290 1064 86 825 z m 608 893 b 928 529 814 893 928 747 b 610 156 928 271 824 156 b 290 526 403 156 290 294 b 608 893 290 743 403 893 z m 396 1115 l 557 1115 l 557 1276 l 396 1276 z m 651 1115 l 813 1115 l 813 1276 l 651 1276 z "},"×":{"ha":765,"x_min":0,"x_max":0,"o":"m 383 353 l 542 182 l 649 281 l 482 458 l 651 640 l 544 739 l 382 565 l 222 736 l 117 639 l 283 460 l 114 278 l 221 179 z "},"Ø":{"ha":1218,"x_min":0,"x_max":0,"o":"m 189 183 l 18 0 l 226 0 l 297 76 b 614 -18 382 17 489 -18 b 1132 528 951 -18 1132 208 b 1029 864 1132 658 1096 774 l 1200 1046 l 992 1046 l 921 969 b 608 1064 838 1031 731 1064 b 86 525 290 1064 86 825 b 189 183 86 392 124 274 z m 893 717 b 929 529 917 663 929 600 b 610 153 929 271 824 153 b 419 208 533 153 471 172 z m 325 329 b 289 526 301 385 289 450 b 608 896 289 743 403 896 b 799 838 685 896 749 875 z "},"Ù":{"ha":1118,"x_min":0,"x_max":0,"o":"m 565 -18 b 999 397 876 -18 999 114 l 999 1046 l 808 1046 l 808 382 b 564 149 808 208 729 149 b 310 372 403 149 310 204 l 310 1046 l 119 1046 l 119 406 b 565 -18 119 106 272 -18 z m 539 1115 l 651 1115 l 558 1326 l 336 1326 z "},"Ú":{"ha":1118,"x_min":0,"x_max":0,"o":"m 565 -18 b 999 397 876 -18 999 114 l 999 1046 l 808 1046 l 808 382 b 564 149 808 208 729 149 b 310 372 403 149 310 204 l 310 1046 l 119 1046 l 119 406 b 565 -18 119 106 272 -18 z m 485 1115 l 597 1115 l 801 1326 l 578 1326 z "},"Û":{"ha":1118,"x_min":0,"x_max":0,"o":"m 565 -18 b 999 397 876 -18 999 114 l 999 1046 l 808 1046 l 808 382 b 564 149 808 208 729 149 b 310 372 403 149 310 204 l 310 1046 l 119 1046 l 119 406 b 565 -18 119 106 272 -18 z m 335 1115 l 439 1115 l 560 1224 l 679 1115 l 788 1115 l 647 1332 l 475 1332 z "},"Ü":{"ha":1118,"x_min":0,"x_max":0,"o":"m 565 -18 b 999 397 876 -18 999 114 l 999 1046 l 808 1046 l 808 382 b 564 149 808 208 729 149 b 310 372 403 149 310 204 l 310 1046 l 119 1046 l 119 406 b 565 -18 119 106 272 -18 z m 350 1115 l 511 1115 l 511 1276 l 350 1276 z m 606 1115 l 767 1115 l 767 1276 l 606 1276 z "},"Ý":{"ha":978,"x_min":0,"x_max":0,"o":"m 404 388 l 404 0 l 594 0 l 594 403 l 953 1046 l 747 1046 l 500 590 l 246 1046 l 25 1046 z m 421 1115 l 533 1115 l 738 1326 l 514 1326 z "},"Þ":{"ha":1058,"x_min":0,"x_max":0,"o":"m 660 851 l 325 851 l 325 1046 l 135 1046 l 135 0 l 325 0 l 325 242 l 656 242 b 1001 550 856 242 1001 340 b 660 851 1001 753 846 851 z m 325 408 l 325 678 l 647 678 b 806 544 735 678 806 644 b 651 408 806 442 736 408 z "},"ß":{"ha":822,"x_min":0,"x_max":0,"o":"m 479 -14 b 765 307 656 -14 765 88 b 586 608 765 467 693 574 b 714 803 665 639 714 713 b 421 1063 714 960 596 1063 b 104 768 250 1063 104 976 l 104 0 l 271 0 l 271 788 b 419 922 271 885 324 922 b 554 796 510 922 554 868 b 376 660 554 728 499 660 l 376 531 l 393 531 b 594 315 532 531 594 460 b 454 131 594 171 538 131 b 368 151 421 131 386 139 l 365 151 l 347 11 b 479 -14 371 -1 425 -14 z "},"à":{"ha":811,"x_min":0,"x_max":0,"o":"m 531 467 b 51 197 215 444 51 386 b 299 -12 51 43 171 -12 b 538 97 431 -12 493 31 b 683 -12 556 31 599 -12 b 765 -7 711 -12 749 -10 l 789 129 l 786 129 b 751 125 775 126 763 125 b 697 181 721 125 697 139 l 697 501 b 410 757 697 682 571 757 b 69 581 253 757 136 708 l 193 500 b 392 613 232 583 300 613 b 531 499 475 613 531 588 z m 531 342 l 531 297 b 322 125 531 193 433 125 b 214 207 251 125 214 153 b 531 342 214 307 340 328 z m 364 854 l 476 854 l 383 1065 l 161 1065 z "},"á":{"ha":811,"x_min":0,"x_max":0,"o":"m 531 467 b 51 197 215 444 51 386 b 299 -12 51 43 171 -12 b 538 97 431 -12 493 31 b 683 -12 556 31 599 -12 b 765 -7 711 -12 749 -10 l 789 129 l 786 129 b 751 125 775 126 763 125 b 697 181 721 125 697 139 l 697 501 b 410 757 697 682 571 757 b 69 581 253 757 136 708 l 193 500 b 392 613 232 583 300 613 b 531 499 475 613 531 588 z m 531 342 l 531 297 b 322 125 531 193 433 125 b 214 207 251 125 214 153 b 531 342 214 307 340 328 z m 329 854 l 442 854 l 646 1065 l 422 1065 z "},"â":{"ha":811,"x_min":0,"x_max":0,"o":"m 531 467 b 51 197 215 444 51 386 b 299 -12 51 43 171 -12 b 538 97 431 -12 493 31 b 683 -12 556 31 599 -12 b 765 -7 711 -12 749 -10 l 789 129 l 786 129 b 751 125 775 126 763 125 b 697 181 721 125 697 139 l 697 501 b 410 757 697 682 571 757 b 69 581 253 757 136 708 l 193 500 b 392 613 232 583 300 613 b 531 499 475 613 531 588 z m 531 342 l 531 297 b 322 125 531 193 433 125 b 214 207 251 125 214 153 b 531 342 214 307 340 328 z m 164 840 l 268 840 l 389 949 l 508 840 l 617 840 l 476 1057 l 304 1057 z "},"ã":{"ha":811,"x_min":0,"x_max":0,"o":"m 531 467 b 51 197 215 444 51 386 b 299 -12 51 43 171 -12 b 538 97 431 -12 493 31 b 683 -12 556 31 599 -12 b 765 -7 711 -12 749 -10 l 789 129 l 786 129 b 751 125 775 126 763 125 b 697 181 721 125 697 139 l 697 501 b 410 757 697 682 571 757 b 69 581 253 757 136 708 l 193 500 b 392 613 232 583 300 613 b 531 499 475 613 531 588 z m 531 342 l 531 297 b 322 125 531 193 433 125 b 214 207 251 125 214 153 b 531 342 214 307 340 328 z m 488 876 b 647 1051 576 876 633 946 l 531 1061 b 485 1004 525 1025 518 1004 b 318 1060 435 1004 401 1060 b 157 882 232 1060 172 996 l 267 872 b 321 932 274 910 289 932 b 488 876 368 932 406 876 z "},"ä":{"ha":811,"x_min":0,"x_max":0,"o":"m 531 467 b 51 197 215 444 51 386 b 299 -12 51 43 171 -12 b 538 97 431 -12 493 31 b 683 -12 556 31 599 -12 b 765 -7 711 -12 749 -10 l 789 129 l 786 129 b 751 125 775 126 763 125 b 697 181 721 125 697 139 l 697 501 b 410 757 697 682 571 757 b 69 581 253 757 136 708 l 193 500 b 392 613 232 583 300 613 b 531 499 475 613 531 588 z m 531 342 l 531 297 b 322 125 531 193 433 125 b 214 207 251 125 214 153 b 531 342 214 307 340 328 z m 196 868 l 357 868 l 357 1029 l 196 1029 z m 451 868 l 613 868 l 613 1029 l 451 1029 z "},"å":{"ha":811,"x_min":0,"x_max":0,"o":"m 531 467 b 51 197 215 444 51 386 b 299 -12 51 43 171 -12 b 538 97 431 -12 493 31 b 683 -12 556 31 599 -12 b 765 -7 711 -12 749 -10 l 789 129 l 786 129 b 751 125 775 126 763 125 b 697 181 721 125 697 139 l 697 501 b 410 757 697 682 571 757 b 69 581 253 757 136 708 l 193 500 b 392 613 232 583 300 613 b 531 499 475 613 531 588 z m 531 342 l 531 297 b 322 125 531 193 433 125 b 214 207 251 125 214 153 b 531 342 214 307 340 328 z m 404 815 b 574 982 507 815 574 886 b 406 1147 574 1075 506 1147 b 236 979 303 1147 236 1075 b 404 815 236 886 303 815 z m 406 897 b 332 983 361 897 332 928 b 406 1067 332 1039 361 1067 b 479 982 450 1067 479 1035 b 406 897 479 925 450 897 z "},"æ":{"ha":1269,"x_min":0,"x_max":0,"o":"m 531 467 b 51 197 215 444 51 386 b 299 -12 51 43 171 -12 b 601 149 440 -12 529 28 b 879 -12 653 42 750 -12 b 1207 206 1079 -12 1171 81 l 1065 257 b 885 129 1036 171 982 129 b 696 335 758 129 706 199 l 1210 335 b 874 757 1210 638 1071 757 b 635 650 771 757 689 719 b 410 757 594 725 517 757 b 69 581 253 757 136 708 l 193 500 b 392 613 232 583 300 613 b 531 499 475 613 531 588 z m 531 342 l 531 297 b 322 125 531 193 433 125 b 214 207 251 125 214 153 b 531 342 214 307 340 328 z m 700 463 b 874 621 718 572 776 621 b 1033 463 974 621 1025 561 z "},"ç":{"ha":767,"x_min":0,"x_max":0,"o":"m 424 -321 b 593 -193 518 -321 593 -281 b 450 -60 593 -107 526 -60 b 386 -78 422 -60 400 -68 l 386 -11 b 407 -12 393 -12 400 -12 b 729 178 583 -12 675 61 l 593 263 b 414 128 561 175 510 128 b 225 385 285 128 225 226 b 414 618 225 542 299 618 b 579 482 501 618 549 572 l 719 554 b 418 757 676 688 569 757 b 57 376 204 757 57 606 b 299 3 57 182 153 46 l 299 -158 l 374 -158 b 431 -132 385 -142 400 -132 b 485 -190 467 -132 485 -153 b 418 -244 485 -228 457 -244 b 335 -199 375 -244 349 -225 l 257 -240 b 424 -321 289 -293 346 -321 z "},"è":{"ha":796,"x_min":0,"x_max":0,"o":"m 222 335 l 736 335 b 400 757 736 638 597 757 b 57 376 200 757 57 610 b 406 -12 57 118 204 -12 b 733 206 606 -12 697 81 l 592 257 b 411 129 563 171 508 129 b 222 335 285 129 232 199 z m 226 463 b 400 621 244 572 303 621 b 560 463 500 621 551 561 z m 350 854 l 463 854 l 369 1065 l 147 1065 z "},"é":{"ha":796,"x_min":0,"x_max":0,"o":"m 222 335 l 736 335 b 400 757 736 638 597 757 b 57 376 200 757 57 610 b 406 -12 57 118 204 -12 b 733 206 606 -12 697 81 l 592 257 b 411 129 563 171 508 129 b 222 335 285 129 232 199 z m 226 463 b 400 621 244 572 303 621 b 560 463 500 621 551 561 z m 319 854 l 432 854 l 636 1065 l 413 1065 z "},"ê":{"ha":796,"x_min":0,"x_max":0,"o":"m 222 335 l 736 335 b 400 757 736 638 597 757 b 57 376 200 757 57 610 b 406 -12 57 118 204 -12 b 733 206 606 -12 697 81 l 592 257 b 411 129 563 171 508 129 b 222 335 285 129 232 199 z m 226 463 b 400 621 244 572 303 621 b 560 463 500 621 551 561 z m 164 840 l 268 840 l 389 949 l 508 840 l 617 840 l 476 1057 l 304 1057 z "},"ë":{"ha":796,"x_min":0,"x_max":0,"o":"m 222 335 l 736 335 b 400 757 736 638 597 757 b 57 376 200 757 57 610 b 406 -12 57 118 204 -12 b 733 206 606 -12 697 81 l 592 257 b 411 129 563 171 508 129 b 222 335 285 129 232 199 z m 226 463 b 400 621 244 572 303 621 b 560 463 500 621 551 561 z m 182 868 l 343 868 l 343 1029 l 182 1029 z m 438 868 l 599 868 l 599 1029 l 438 1029 z "},"ì":{"ha":386,"x_min":0,"x_max":0,"o":"m 110 742 l 110 0 l 276 0 l 276 742 z m 157 854 l 269 854 l 176 1065 l -46 1065 z "},"í":{"ha":386,"x_min":0,"x_max":0,"o":"m 110 742 l 110 0 l 276 0 l 276 742 z m 122 854 l 235 854 l 439 1065 l 215 1065 z "},"î":{"ha":386,"x_min":0,"x_max":0,"o":"m 110 742 l 110 0 l 276 0 l 276 742 z m -29 840 l 75 840 l 196 949 l 315 840 l 424 840 l 283 1057 l 111 1057 z "},"ï":{"ha":386,"x_min":0,"x_max":0,"o":"m 110 742 l 110 0 l 276 0 l 276 742 z m -11 868 l 150 868 l 150 1029 l -11 1029 z m 244 868 l 406 868 l 406 1029 l 244 1029 z "},"ð":{"ha":796,"x_min":0,"x_max":0,"o":"m 176 854 l 215 768 l 396 857 b 519 696 447 810 489 757 b 364 751 479 733 432 751 b 47 369 181 751 47 600 b 397 -18 47 142 185 -18 b 757 399 615 -18 757 106 b 539 928 757 611 681 789 l 638 976 l 599 1063 l 461 994 b 321 1083 419 1028 372 1057 l 235 976 l 315 922 z m 399 115 b 213 374 272 115 213 221 b 399 624 213 525 269 624 b 592 369 522 624 592 529 b 399 115 592 199 524 115 z "},"ñ":{"ha":851,"x_min":0,"x_max":0,"o":"m 104 742 l 104 0 l 271 0 l 271 390 b 453 613 271 543 349 613 b 588 449 549 613 588 549 l 588 0 l 754 0 l 754 488 b 500 757 754 685 607 757 b 268 622 369 757 303 688 l 271 742 z m 506 876 b 665 1051 594 876 651 946 l 549 1061 b 503 1004 543 1025 536 1004 b 336 1060 453 1004 419 1060 b 175 882 250 1060 190 996 l 285 872 b 339 932 292 910 307 932 b 506 876 386 932 424 876 z "},"ò":{"ha":824,"x_min":0,"x_max":0,"o":"m 413 760 b 57 371 207 760 57 615 b 413 -18 57 136 199 -18 b 767 372 633 -18 767 119 b 413 760 767 614 625 760 z m 414 628 b 601 371 546 628 601 514 b 410 115 601 221 558 115 b 222 382 271 115 222 232 b 414 628 222 528 281 628 z m 358 854 l 471 854 l 378 1065 l 156 1065 z "},"ó":{"ha":824,"x_min":0,"x_max":0,"o":"m 413 760 b 57 371 207 760 57 615 b 413 -18 57 136 199 -18 b 767 372 633 -18 767 119 b 413 760 767 614 625 760 z m 414 628 b 601 371 546 628 601 514 b 410 115 601 221 558 115 b 222 382 271 115 222 232 b 414 628 222 528 281 628 z m 335 854 l 447 854 l 651 1065 l 428 1065 z "},"ô":{"ha":824,"x_min":0,"x_max":0,"o":"m 413 760 b 57 371 207 760 57 615 b 413 -18 57 136 199 -18 b 767 372 633 -18 767 119 b 413 760 767 614 625 760 z m 414 628 b 601 371 546 628 601 514 b 410 115 601 221 558 115 b 222 382 271 115 222 232 b 414 628 222 528 281 628 z m 175 840 l 279 840 l 400 949 l 519 840 l 628 840 l 488 1057 l 315 1057 z "},"õ":{"ha":824,"x_min":0,"x_max":0,"o":"m 413 760 b 57 371 207 760 57 615 b 413 -18 57 136 199 -18 b 767 372 633 -18 767 119 b 413 760 767 614 625 760 z m 414 628 b 601 371 546 628 601 514 b 410 115 601 221 558 115 b 222 382 271 115 222 232 b 414 628 222 528 281 628 z m 485 876 b 644 1051 574 876 631 946 l 528 1061 b 482 1004 522 1025 515 1004 b 315 1060 432 1004 399 1060 b 154 882 229 1060 169 996 l 264 872 b 318 932 271 910 286 932 b 485 876 365 932 403 876 z "},"ö":{"ha":824,"x_min":0,"x_max":0,"o":"m 413 760 b 57 371 207 760 57 615 b 413 -18 57 136 199 -18 b 767 372 633 -18 767 119 b 413 760 767 614 625 760 z m 414 628 b 601 371 546 628 601 514 b 410 115 601 221 558 115 b 222 382 271 115 222 232 b 414 628 222 528 281 628 z m 196 868 l 357 868 l 357 1029 l 196 1029 z m 451 868 l 613 868 l 613 1029 l 451 1029 z "},"÷":{"ha":765,"x_min":0,"x_max":0,"o":"m 90 381 l 675 381 l 675 539 l 90 539 z m 289 644 l 479 644 l 479 838 l 289 838 z m 289 82 l 479 82 l 479 275 l 289 275 z "},"ø":{"ha":824,"x_min":0,"x_max":0,"o":"m 121 131 l 7 0 l 171 0 l 207 42 b 413 -18 264 3 333 -18 b 767 381 633 -18 767 119 b 704 613 767 472 744 550 l 817 742 l 653 742 l 618 701 b 413 760 561 739 492 760 b 57 371 207 760 57 615 b 121 131 57 276 81 194 z m 235 261 b 221 382 225 297 221 338 b 414 629 221 531 281 629 b 524 593 458 629 496 617 z m 590 481 b 603 371 599 447 603 411 b 410 114 603 218 558 114 b 300 149 364 114 328 126 z "},"ù":{"ha":851,"x_min":0,"x_max":0,"o":"m 747 0 l 747 742 l 581 742 l 581 351 b 399 129 581 199 503 129 b 264 293 303 129 264 193 l 264 742 l 97 742 l 97 254 b 351 -15 97 57 244 -15 b 583 119 482 -15 549 57 l 581 0 z m 385 854 l 497 854 l 404 1065 l 182 1065 z "},"ú":{"ha":851,"x_min":0,"x_max":0,"o":"m 747 0 l 747 742 l 581 742 l 581 351 b 399 129 581 199 503 129 b 264 293 303 129 264 193 l 264 742 l 97 742 l 97 254 b 351 -15 97 57 244 -15 b 583 119 482 -15 549 57 l 581 0 z m 350 854 l 463 854 l 667 1065 l 443 1065 z "},"û":{"ha":851,"x_min":0,"x_max":0,"o":"m 747 0 l 747 742 l 581 742 l 581 351 b 399 129 581 199 503 129 b 264 293 303 129 264 193 l 264 742 l 97 742 l 97 254 b 351 -15 97 57 244 -15 b 583 119 482 -15 549 57 l 581 0 z m 199 840 l 303 840 l 424 949 l 543 840 l 651 840 l 511 1057 l 339 1057 z "},"ü":{"ha":851,"x_min":0,"x_max":0,"o":"m 747 0 l 747 742 l 581 742 l 581 351 b 399 129 581 199 503 129 b 264 293 303 129 264 193 l 264 742 l 97 742 l 97 254 b 351 -15 97 57 244 -15 b 583 119 482 -15 549 57 l 581 0 z m 217 868 l 378 868 l 378 1029 l 217 1029 z m 472 868 l 633 868 l 633 1029 l 472 1029 z "},"ý":{"ha":739,"x_min":0,"x_max":0,"o":"m 296 10 l 271 -53 b 165 -126 249 -111 210 -126 b 93 -104 135 -126 108 -118 l 90 -104 l 47 -244 b 186 -275 81 -264 131 -275 b 332 -233 239 -275 294 -262 b 433 -81 381 -196 414 -139 l 699 742 l 536 742 l 382 233 l 218 742 l 40 742 z m 310 854 l 422 854 l 626 1065 l 403 1065 z "},"þ":{"ha":858,"x_min":0,"x_max":0,"o":"m 489 -12 b 808 379 706 -12 808 139 b 503 757 808 626 668 757 b 271 633 381 757 317 706 l 271 1053 l 104 1053 l 104 -253 l 271 -253 l 271 90 b 489 -12 303 40 368 -12 z m 267 378 b 460 614 267 536 349 614 b 643 376 583 614 643 529 b 467 131 643 218 594 131 b 267 378 342 131 267 197 z "},"ÿ":{"ha":739,"x_min":0,"x_max":0,"o":"m 296 10 l 271 -53 b 165 -126 249 -111 210 -126 b 93 -104 135 -126 108 -118 l 90 -104 l 47 -244 b 186 -275 81 -264 131 -275 b 332 -233 239 -275 294 -262 b 433 -81 381 -196 414 -139 l 699 742 l 536 742 l 382 233 l 218 742 l 40 742 z m 160 868 l 321 868 l 321 1029 l 160 1029 z m 415 868 l 576 868 l 576 1029 l 415 1029 z "},"Ā":{"ha":996,"x_min":0,"x_max":0,"o":"m 301 244 l 685 244 l 764 0 l 957 0 l 607 1046 l 401 1046 l 39 0 l 219 0 z m 632 406 l 356 406 l 496 821 z m 290 1125 l 704 1125 l 704 1249 l 290 1249 z "},"ā":{"ha":811,"x_min":0,"x_max":0,"o":"m 531 467 b 51 197 215 444 51 386 b 299 -12 51 43 171 -12 b 538 97 431 -12 493 31 b 683 -12 556 31 599 -12 b 765 -7 711 -12 749 -10 l 789 129 l 786 129 b 751 125 775 126 763 125 b 697 181 721 125 697 139 l 697 501 b 410 757 697 682 571 757 b 69 581 253 757 136 708 l 193 500 b 392 613 232 583 300 613 b 531 499 475 613 531 588 z m 531 342 l 531 297 b 322 125 531 193 433 125 b 214 207 251 125 214 153 b 531 342 214 307 340 328 z m 190 868 l 604 868 l 604 992 l 190 992 z "},"Ă":{"ha":996,"x_min":0,"x_max":0,"o":"m 301 244 l 685 244 l 764 0 l 957 0 l 607 1046 l 401 1046 l 39 0 l 219 0 z m 632 406 l 356 406 l 496 821 z m 503 1125 b 722 1322 625 1125 710 1199 l 601 1332 b 504 1249 593 1288 569 1249 b 408 1332 439 1249 415 1288 l 286 1322 b 503 1125 297 1201 379 1125 z "},"ă":{"ha":811,"x_min":0,"x_max":0,"o":"m 531 467 b 51 197 215 444 51 386 b 299 -12 51 43 171 -12 b 538 97 431 -12 493 31 b 683 -12 556 31 599 -12 b 765 -7 711 -12 749 -10 l 789 129 l 786 129 b 751 125 775 126 763 125 b 697 181 721 125 697 139 l 697 501 b 410 757 697 682 571 757 b 69 581 253 757 136 708 l 193 500 b 392 613 232 583 300 613 b 531 499 475 613 531 588 z m 531 342 l 531 297 b 322 125 531 193 433 125 b 214 207 251 125 214 153 b 531 342 214 307 340 328 z m 400 843 b 619 1040 522 843 607 917 l 499 1050 b 401 967 490 1006 467 967 b 306 1050 336 967 313 1006 l 183 1040 b 400 843 194 919 276 843 z "},"Ą":{"ha":996,"x_min":0,"x_max":0,"o":"m 838 -271 b 950 -243 900 -271 926 -257 l 968 -139 l 965 -139 b 892 -160 944 -150 919 -160 b 842 -117 856 -160 842 -144 b 953 11 842 -76 876 -46 l 607 1046 l 401 1046 l 39 0 l 219 0 l 301 244 l 685 244 l 764 0 l 814 0 b 696 -151 758 -26 696 -74 b 838 -271 696 -228 760 -271 z m 632 406 l 356 406 l 496 821 z "},"ą":{"ha":811,"x_min":0,"x_max":0,"o":"m 653 -271 b 765 -243 715 -271 742 -257 l 783 -139 l 781 -139 b 707 -160 760 -150 735 -160 b 657 -112 674 -160 657 -144 b 765 -7 657 -72 703 -24 l 789 129 l 786 129 b 751 125 775 126 763 125 b 697 181 721 125 697 139 l 697 501 b 410 757 697 682 571 757 b 69 581 253 757 136 708 l 193 500 b 392 613 232 583 300 613 b 531 499 475 613 531 588 l 531 467 b 51 197 215 444 51 386 b 299 -12 51 43 171 -12 b 538 97 431 -12 493 31 b 622 -3 550 49 576 13 b 511 -151 568 -31 511 -76 b 653 -271 511 -228 575 -271 z m 531 342 l 531 297 b 322 125 531 193 433 125 b 214 207 251 125 214 153 b 531 342 214 307 340 328 z "},"Ć":{"ha":1086,"x_min":0,"x_max":0,"o":"m 1029 263 l 868 350 b 599 156 825 236 754 156 b 290 526 374 156 290 294 b 597 893 290 743 378 893 b 860 686 747 893 818 800 l 1022 776 b 597 1064 960 954 815 1064 b 86 525 268 1064 86 832 b 592 -18 86 208 256 -18 b 1029 263 843 -18 974 111 z m 510 1115 l 622 1115 l 826 1326 l 603 1326 z "},"ć":{"ha":767,"x_min":0,"x_max":0,"o":"m 579 482 l 719 554 b 418 757 676 688 569 757 b 57 376 204 757 57 606 b 407 -12 57 138 203 -12 b 729 178 583 -12 675 61 l 593 263 b 414 128 561 175 510 128 b 225 385 285 128 225 226 b 414 618 225 542 299 618 b 579 482 501 618 549 572 z m 336 854 l 449 854 l 653 1065 l 429 1065 z "},"Ĉ":{"ha":1086,"x_min":0,"x_max":0,"o":"m 1029 263 l 868 350 b 599 156 825 236 754 156 b 290 526 374 156 290 294 b 597 893 290 743 378 893 b 860 686 747 893 818 800 l 1022 776 b 597 1064 960 954 815 1064 b 86 525 268 1064 86 832 b 592 -18 86 208 256 -18 b 1029 263 843 -18 974 111 z m 347 1115 l 451 1115 l 572 1224 l 692 1115 l 800 1115 l 660 1332 l 488 1332 z "},"ĉ":{"ha":767,"x_min":0,"x_max":0,"o":"m 579 482 l 719 554 b 418 757 676 688 569 757 b 57 376 204 757 57 606 b 407 -12 57 138 203 -12 b 729 178 583 -12 675 61 l 593 263 b 414 128 561 175 510 128 b 225 385 285 128 225 226 b 414 618 225 542 299 618 b 579 482 501 618 549 572 z m 181 840 l 285 840 l 406 949 l 525 840 l 633 840 l 493 1057 l 321 1057 z "},"Ċ":{"ha":1086,"x_min":0,"x_max":0,"o":"m 1029 263 l 868 350 b 599 156 825 236 754 156 b 290 526 374 156 290 294 b 597 893 290 743 378 893 b 860 686 747 893 818 800 l 1022 776 b 597 1064 960 954 815 1064 b 86 525 268 1064 86 832 b 592 -18 86 208 256 -18 b 1029 263 843 -18 974 111 z m 503 1115 l 664 1115 l 664 1276 l 503 1276 z "},"ċ":{"ha":767,"x_min":0,"x_max":0,"o":"m 579 482 l 719 554 b 418 757 676 688 569 757 b 57 376 204 757 57 606 b 407 -12 57 138 203 -12 b 729 178 583 -12 675 61 l 593 263 b 414 128 561 175 510 128 b 225 385 285 128 225 226 b 414 618 225 542 299 618 b 579 482 501 618 549 572 z m 329 1053 l 329 867 l 507 867 l 507 1053 z "},"Č":{"ha":1086,"x_min":0,"x_max":0,"o":"m 1029 263 l 868 350 b 599 156 825 236 754 156 b 290 526 374 156 290 294 b 597 893 290 743 378 893 b 860 686 747 893 818 800 l 1022 776 b 597 1064 960 954 815 1064 b 86 525 268 1064 86 832 b 592 -18 86 208 256 -18 b 1029 263 843 -18 974 111 z m 815 1332 l 711 1332 l 590 1224 l 471 1332 l 363 1332 l 503 1115 l 675 1115 z "},"č":{"ha":767,"x_min":0,"x_max":0,"o":"m 579 482 l 719 554 b 418 757 676 688 569 757 b 57 376 204 757 57 606 b 407 -12 57 138 203 -12 b 729 178 583 -12 675 61 l 593 263 b 414 128 561 175 510 128 b 225 385 285 128 225 226 b 414 618 225 542 299 618 b 579 482 501 618 549 572 z m 633 1057 l 529 1057 l 408 949 l 289 1057 l 181 1057 l 321 840 l 493 840 z "},"Ď":{"ha":1128,"x_min":0,"x_max":0,"o":"m 135 0 l 553 0 b 1042 525 929 0 1042 243 b 556 1046 1042 815 882 1046 l 135 1046 z m 325 876 l 564 876 b 850 526 744 876 850 744 b 565 168 850 285 743 168 l 325 168 z m 751 1332 l 647 1332 l 526 1224 l 407 1332 l 299 1332 l 439 1115 l 611 1115 z "},"ď":{"ha":1035,"x_min":0,"x_max":0,"o":"m 374 -18 b 597 106 497 -18 564 49 l 594 0 l 761 0 l 761 1053 l 594 1053 l 594 654 b 374 757 553 717 488 757 b 57 379 189 757 57 619 b 374 -18 57 133 172 -18 z m 599 378 b 399 125 599 203 524 125 b 222 376 276 125 222 219 b 406 614 222 540 285 614 b 599 378 519 614 599 543 z m 869 669 b 1065 881 972 682 1065 735 l 1065 1053 l 868 1053 l 868 861 l 958 861 b 869 761 958 794 919 772 z "},"Đ":{"ha":1128,"x_min":0,"x_max":0,"o":"m 135 438 l 135 0 l 553 0 b 1042 525 929 0 1042 243 b 556 1046 1042 815 882 1046 l 135 1046 l 135 597 l 25 597 l 25 438 z m 325 597 l 325 876 l 564 876 b 850 526 744 876 850 744 b 565 168 850 285 743 168 l 325 168 l 325 438 l 522 438 l 522 597 z "},"đ":{"ha":865,"x_min":0,"x_max":0,"o":"m 594 840 l 594 654 b 374 757 553 717 488 757 b 57 379 189 757 57 619 b 374 -18 57 133 172 -18 b 597 106 497 -18 564 49 l 594 0 l 761 0 l 761 840 l 849 840 l 849 960 l 761 960 l 761 1053 l 594 1053 l 594 960 l 360 960 l 360 840 z m 599 378 b 399 125 599 203 524 125 b 222 376 276 125 222 219 b 406 614 222 540 285 614 b 599 378 519 614 599 543 z "},"Ē":{"ha":1056,"x_min":0,"x_max":0,"o":"m 325 450 l 849 450 l 849 618 l 325 618 l 325 874 l 942 874 l 942 1046 l 135 1046 l 135 0 l 968 0 l 968 172 l 325 172 z m 346 1125 l 760 1125 l 760 1249 l 346 1249 z "},"ē":{"ha":796,"x_min":0,"x_max":0,"o":"m 222 335 l 736 335 b 400 757 736 638 597 757 b 57 376 200 757 57 610 b 406 -12 57 118 204 -12 b 733 206 606 -12 697 81 l 592 257 b 411 129 563 171 508 129 b 222 335 285 129 232 199 z m 226 463 b 400 621 244 572 303 621 b 560 463 500 621 551 561 z m 190 868 l 604 868 l 604 992 l 190 992 z "},"Ĕ":{"ha":1056,"x_min":0,"x_max":0,"o":"m 325 450 l 849 450 l 849 618 l 325 618 l 325 874 l 942 874 l 942 1046 l 135 1046 l 135 0 l 968 0 l 968 172 l 325 172 z m 538 1125 b 757 1322 660 1125 744 1199 l 636 1332 b 539 1249 628 1288 604 1249 b 443 1332 474 1249 450 1288 l 321 1322 b 538 1125 332 1201 414 1125 z "},"ĕ":{"ha":796,"x_min":0,"x_max":0,"o":"m 222 335 l 736 335 b 400 757 736 638 597 757 b 57 376 200 757 57 610 b 406 -12 57 118 204 -12 b 733 206 606 -12 697 81 l 592 257 b 411 129 563 171 508 129 b 222 335 285 129 232 199 z m 226 463 b 400 621 244 572 303 621 b 560 463 500 621 551 561 z m 400 843 b 619 1040 522 843 607 917 l 499 1050 b 401 967 490 1006 467 967 b 306 1050 336 967 313 1006 l 183 1040 b 400 843 194 919 276 843 z "},"Ė":{"ha":1056,"x_min":0,"x_max":0,"o":"m 325 450 l 849 450 l 849 618 l 325 618 l 325 874 l 942 874 l 942 1046 l 135 1046 l 135 0 l 968 0 l 968 172 l 325 172 z m 464 1115 l 625 1115 l 625 1276 l 464 1276 z "},"ė":{"ha":796,"x_min":0,"x_max":0,"o":"m 222 335 l 736 335 b 400 757 736 638 597 757 b 57 376 200 757 57 610 b 406 -12 57 118 204 -12 b 733 206 606 -12 697 81 l 592 257 b 411 129 563 171 508 129 b 222 335 285 129 232 199 z m 226 463 b 400 621 244 572 303 621 b 560 463 500 621 551 561 z m 313 1053 l 313 867 l 490 867 l 490 1053 z "},"Ę":{"ha":1056,"x_min":0,"x_max":0,"o":"m 821 -271 b 933 -243 883 -271 910 -257 l 951 -139 l 949 -139 b 875 -160 928 -150 903 -160 b 825 -117 839 -160 825 -144 b 922 0 825 -76 860 -46 l 968 0 l 968 172 l 325 172 l 325 450 l 849 450 l 849 618 l 325 618 l 325 874 l 942 874 l 942 1046 l 135 1046 l 135 0 l 797 0 b 679 -151 742 -26 679 -74 b 821 -271 679 -228 743 -271 z "},"ę":{"ha":796,"x_min":0,"x_max":0,"o":"m 490 -271 b 603 -243 553 -271 579 -257 l 621 -139 l 618 -139 b 544 -160 597 -150 572 -160 b 494 -117 508 -160 494 -144 b 592 11 494 -76 539 -33 b 733 206 646 57 707 108 l 592 257 b 411 129 563 171 508 129 b 222 335 285 129 232 199 l 736 335 b 400 757 736 638 597 757 b 57 376 200 757 57 610 b 406 -12 57 118 204 -12 b 444 -11 419 -12 432 -11 b 349 -151 396 -39 349 -83 b 490 -271 349 -228 413 -271 z m 226 463 b 400 621 244 572 303 621 b 560 463 500 621 551 561 z "},"Ě":{"ha":1056,"x_min":0,"x_max":0,"o":"m 325 450 l 849 450 l 849 618 l 325 618 l 325 874 l 942 874 l 942 1046 l 135 1046 l 135 0 l 968 0 l 968 172 l 325 172 z m 781 1332 l 676 1332 l 556 1224 l 436 1332 l 328 1332 l 468 1115 l 640 1115 z "},"ě":{"ha":796,"x_min":0,"x_max":0,"o":"m 222 335 l 736 335 b 400 757 736 638 597 757 b 57 376 200 757 57 610 b 406 -12 57 118 204 -12 b 733 206 606 -12 697 81 l 592 257 b 411 129 563 171 508 129 b 222 335 285 129 232 199 z m 226 463 b 400 621 244 572 303 621 b 560 463 500 621 551 561 z m 626 1057 l 522 1057 l 401 949 l 282 1057 l 174 1057 l 314 840 l 486 840 z "},"Ĝ":{"ha":1169,"x_min":0,"x_max":0,"o":"m 921 114 l 963 -14 l 1056 -14 l 1056 564 l 650 564 l 650 404 l 878 404 l 878 368 b 606 150 878 250 790 150 b 290 526 371 150 290 294 b 606 893 290 743 385 893 b 886 711 754 893 838 836 l 1053 803 b 611 1064 975 979 825 1064 b 86 525 279 1064 86 839 b 590 -18 86 208 247 -18 b 921 114 753 -18 850 26 z m 385 1115 l 489 1115 l 610 1224 l 729 1115 l 838 1115 l 697 1332 l 525 1332 z "},"ĝ":{"ha":794,"x_min":0,"x_max":0,"o":"m 614 653 b 383 754 569 713 483 754 b 96 489 215 754 96 651 b 183 303 96 408 128 344 b 51 165 101 279 51 233 b 171 28 51 88 89 43 b 42 -99 96 6 42 -29 b 392 -265 42 -218 165 -265 b 760 -44 643 -265 760 -197 b 676 118 760 36 731 88 b 415 150 625 147 544 150 b 189 200 232 150 189 157 b 272 247 189 232 232 247 b 375 242 313 247 317 242 b 664 489 549 242 664 326 b 660 546 664 508 660 526 b 722 608 660 578 692 608 b 761 589 739 608 753 600 l 764 589 l 796 731 b 744 750 788 740 767 750 b 614 653 692 750 644 724 z m 383 625 b 514 494 474 625 514 564 b 381 371 514 422 471 371 b 246 492 292 371 246 414 b 383 625 246 567 289 625 z m 193 -64 b 382 0 193 -11 246 0 b 576 -11 486 0 547 0 b 601 -58 594 -18 601 -40 b 400 -131 601 -101 558 -131 b 193 -64 238 -131 193 -112 z m 186 840 l 290 840 l 411 949 l 531 840 l 639 840 l 499 1057 l 326 1057 z "},"Ğ":{"ha":1169,"x_min":0,"x_max":0,"o":"m 921 114 l 963 -14 l 1056 -14 l 1056 564 l 650 564 l 650 404 l 878 404 l 878 368 b 606 150 878 250 790 150 b 290 526 371 150 290 294 b 606 893 290 743 385 893 b 886 711 754 893 838 836 l 1053 803 b 611 1064 975 979 825 1064 b 86 525 279 1064 86 839 b 590 -18 86 208 247 -18 b 921 114 753 -18 850 26 z m 611 1125 b 831 1322 733 1125 818 1199 l 710 1332 b 613 1249 701 1288 678 1249 b 517 1332 547 1249 524 1288 l 394 1322 b 611 1125 406 1201 488 1125 z "},"ğ":{"ha":794,"x_min":0,"x_max":0,"o":"m 614 653 b 383 754 569 713 483 754 b 96 489 215 754 96 651 b 183 303 96 408 128 344 b 51 165 101 279 51 233 b 171 28 51 88 89 43 b 42 -99 96 6 42 -29 b 392 -265 42 -218 165 -265 b 760 -44 643 -265 760 -197 b 676 118 760 36 731 88 b 415 150 625 147 544 150 b 189 200 232 150 189 157 b 272 247 189 232 232 247 b 375 242 313 247 317 242 b 664 489 549 242 664 326 b 660 546 664 508 660 526 b 722 608 660 578 692 608 b 761 589 739 608 753 600 l 764 589 l 796 731 b 744 750 788 740 767 750 b 614 653 692 750 644 724 z m 383 625 b 514 494 474 625 514 564 b 381 371 514 422 471 371 b 246 492 292 371 246 414 b 383 625 246 567 289 625 z m 193 -64 b 382 0 193 -11 246 0 b 576 -11 486 0 547 0 b 601 -58 594 -18 601 -40 b 400 -131 601 -101 558 -131 b 193 -64 238 -131 193 -112 z m 388 843 b 607 1040 510 843 594 917 l 486 1050 b 389 967 478 1006 454 967 b 293 1050 324 967 300 1006 l 171 1040 b 388 843 182 919 264 843 z "},"Ġ":{"ha":1169,"x_min":0,"x_max":0,"o":"m 921 114 l 963 -14 l 1056 -14 l 1056 564 l 650 564 l 650 404 l 878 404 l 878 368 b 606 150 878 250 790 150 b 290 526 371 150 290 294 b 606 893 290 743 385 893 b 886 711 754 893 838 836 l 1053 803 b 611 1064 975 979 825 1064 b 86 525 279 1064 86 839 b 590 -18 86 208 247 -18 b 921 114 753 -18 850 26 z m 531 1115 l 692 1115 l 692 1276 l 531 1276 z "},"ġ":{"ha":794,"x_min":0,"x_max":0,"o":"m 614 653 b 383 754 569 713 483 754 b 96 489 215 754 96 651 b 183 303 96 408 128 344 b 51 165 101 279 51 233 b 171 28 51 88 89 43 b 42 -99 96 6 42 -29 b 392 -265 42 -218 165 -265 b 760 -44 643 -265 760 -197 b 676 118 760 36 731 88 b 415 150 625 147 544 150 b 189 200 232 150 189 157 b 272 247 189 232 232 247 b 375 242 313 247 317 242 b 664 489 549 242 664 326 b 660 546 664 508 660 526 b 722 608 660 578 692 608 b 761 589 739 608 753 600 l 764 589 l 796 731 b 744 750 788 740 767 750 b 614 653 692 750 644 724 z m 383 625 b 514 494 474 625 514 564 b 381 371 514 422 471 371 b 246 492 292 371 246 414 b 383 625 246 567 289 625 z m 193 -64 b 382 0 193 -11 246 0 b 576 -11 486 0 547 0 b 601 -58 594 -18 601 -40 b 400 -131 601 -101 558 -131 b 193 -64 238 -131 193 -112 z m 294 1053 l 294 867 l 472 867 l 472 1053 z "},"Ģ":{"ha":1169,"x_min":0,"x_max":0,"o":"m 921 114 l 963 -14 l 1056 -14 l 1056 564 l 650 564 l 650 404 l 878 404 l 878 368 b 606 150 878 250 790 150 b 290 526 371 150 290 294 b 606 893 290 743 385 893 b 886 711 754 893 838 836 l 1053 803 b 611 1064 975 979 825 1064 b 86 525 279 1064 86 839 b 590 -18 86 208 247 -18 b 921 114 753 -18 850 26 z m 510 -396 b 672 -224 592 -386 672 -339 l 672 -75 l 508 -75 l 508 -237 l 588 -237 b 510 -324 588 -296 551 -315 z "},"ģ":{"ha":794,"x_min":0,"x_max":0,"o":"m 614 653 b 383 754 569 713 483 754 b 96 489 215 754 96 651 b 183 303 96 408 128 344 b 51 165 101 279 51 233 b 171 28 51 88 89 43 b 42 -99 96 6 42 -29 b 392 -265 42 -218 165 -265 b 760 -44 643 -265 760 -197 b 676 118 760 36 731 88 b 415 150 625 147 544 150 b 189 200 232 150 189 157 b 272 247 189 232 232 247 b 375 242 313 247 317 242 b 664 489 549 242 664 326 b 660 546 664 508 660 526 b 722 608 660 578 692 608 b 761 589 739 608 753 600 l 764 589 l 796 731 b 744 750 788 740 767 750 b 614 653 692 750 644 724 z m 383 625 b 514 494 474 625 514 564 b 381 371 514 422 471 371 b 246 492 292 371 246 414 b 383 625 246 567 289 625 z m 193 -64 b 382 0 193 -11 246 0 b 576 -11 486 0 547 0 b 601 -58 594 -18 601 -40 b 400 -131 601 -101 558 -131 b 193 -64 238 -131 193 -112 z m 489 1189 b 326 1017 407 1179 326 1132 l 326 868 l 490 868 l 490 1031 l 411 1031 b 489 1117 411 1089 447 1108 z "},"Ĥ":{"ha":1149,"x_min":0,"x_max":0,"o":"m 824 622 l 325 622 l 325 1046 l 135 1046 l 135 0 l 325 0 l 325 450 l 824 450 l 824 0 l 1014 0 l 1014 1046 l 824 1046 z m 347 1115 l 451 1115 l 572 1224 l 692 1115 l 800 1115 l 660 1332 l 488 1332 z "},"ĥ":{"ha":851,"x_min":0,"x_max":0,"o":"m 104 1053 l 104 0 l 271 0 l 271 390 b 453 613 271 543 349 613 b 588 449 549 613 588 549 l 588 0 l 754 0 l 754 488 b 500 757 754 685 607 757 b 271 626 369 757 307 690 l 271 1053 z m 211 1115 l 315 1115 l 436 1224 l 556 1115 l 664 1115 l 524 1332 l 351 1332 z "},"Ħ":{"ha":1149,"x_min":0,"x_max":0,"o":"m 43 767 l 135 767 l 135 0 l 325 0 l 325 450 l 824 450 l 824 0 l 1014 0 l 1014 767 l 1106 767 l 1106 903 l 1014 903 l 1014 1046 l 824 1046 l 824 903 l 325 903 l 325 1046 l 135 1046 l 135 903 l 43 903 z m 824 622 l 325 622 l 325 767 l 824 767 z "},"ħ":{"ha":851,"x_min":0,"x_max":0,"o":"m 17 839 l 104 839 l 104 0 l 271 0 l 271 390 b 453 613 271 543 349 613 b 588 449 549 613 588 549 l 588 0 l 754 0 l 754 488 b 500 757 754 685 607 757 b 271 626 369 757 307 690 l 271 839 l 506 839 l 506 960 l 271 960 l 271 1053 l 104 1053 l 104 960 l 17 960 z "},"Ĩ":{"ha":493,"x_min":0,"x_max":0,"o":"m 151 1046 l 151 0 l 342 0 l 342 1046 z m 332 1124 b 492 1299 421 1124 478 1193 l 375 1308 b 329 1251 369 1272 363 1251 b 163 1307 279 1251 246 1307 b 1 1129 76 1307 17 1243 l 111 1119 b 165 1179 118 1157 133 1179 b 332 1124 213 1179 250 1124 z "},"ĩ":{"ha":386,"x_min":0,"x_max":0,"o":"m 110 742 l 110 0 l 276 0 l 276 742 z m 279 876 b 439 1051 368 876 425 946 l 322 1061 b 276 1004 317 1025 310 1004 b 110 1060 226 1004 193 1060 b -51 882 24 1060 -36 996 l 58 872 b 113 932 65 910 81 932 b 279 876 160 932 197 876 z "},"Ī":{"ha":493,"x_min":0,"x_max":0,"o":"m 151 1046 l 151 0 l 342 0 l 342 1046 z m 39 1125 l 453 1125 l 453 1249 l 39 1249 z "},"ī":{"ha":386,"x_min":0,"x_max":0,"o":"m 110 742 l 110 0 l 276 0 l 276 742 z m -14 868 l 400 868 l 400 992 l -14 992 z "},"Ĭ":{"ha":493,"x_min":0,"x_max":0,"o":"m 151 1046 l 151 0 l 342 0 l 342 1046 z m 244 1125 b 464 1322 367 1125 451 1199 l 343 1332 b 246 1249 335 1288 311 1249 b 150 1332 181 1249 157 1288 l 28 1322 b 244 1125 39 1201 121 1125 z "},"ĭ":{"ha":386,"x_min":0,"x_max":0,"o":"m 110 742 l 110 0 l 276 0 l 276 742 z m 193 843 b 413 1040 315 843 400 917 l 292 1050 b 194 967 283 1006 260 967 b 99 1050 129 967 106 1006 l -24 1040 b 193 843 -12 919 69 843 z "},"Į":{"ha":493,"x_min":0,"x_max":0,"o":"m 240 -271 b 353 -243 303 -271 329 -257 l 371 -139 l 368 -139 b 294 -160 347 -150 322 -160 b 244 -117 258 -160 244 -144 b 342 0 244 -76 279 -46 l 342 1046 l 151 1046 l 151 0 l 217 0 b 99 -151 161 -26 99 -74 b 240 -271 99 -228 163 -271 z "},"į":{"ha":386,"x_min":0,"x_max":0,"o":"m 175 -271 b 288 -243 238 -271 264 -257 l 306 -139 l 303 -139 b 229 -160 282 -150 257 -160 b 179 -117 193 -160 179 -144 b 276 0 179 -76 214 -46 l 276 742 l 110 742 l 110 0 l 151 0 b 33 -151 96 -26 33 -74 b 175 -271 33 -228 97 -271 z m 104 1053 l 104 867 l 282 867 l 282 1053 z "},"İ":{"ha":493,"x_min":0,"x_max":0,"o":"m 151 1046 l 151 0 l 342 0 l 342 1046 z m 165 1115 l 326 1115 l 326 1276 l 165 1276 z "},"ı":{"ha":386,"x_min":0,"x_max":0,"o":"m 110 742 l 110 0 l 276 0 l 276 742 z "},"Ĳ":{"ha":1317,"x_min":0,"x_max":0,"o":"m 151 1046 l 151 0 l 342 0 l 342 1046 z m 551 367 l 551 314 b 878 -18 551 100 658 -18 b 1197 356 1110 -18 1197 111 l 1197 1046 l 1007 1046 l 1007 340 b 867 151 1007 203 965 151 b 732 332 772 151 732 206 l 732 367 z "},"ĳ":{"ha":772,"x_min":0,"x_max":0,"o":"m 110 742 l 110 0 l 276 0 l 276 742 z m 104 1053 l 104 867 l 282 867 l 282 1053 z m 663 -56 l 663 742 l 496 742 l 496 -56 b 439 -114 496 -93 469 -114 b 368 -93 413 -114 390 -108 l 365 -93 l 350 -231 b 481 -261 379 -246 417 -261 b 663 -56 586 -261 663 -196 z m 490 1053 l 490 867 l 668 867 l 668 1053 z "},"Ĵ":{"ha":824,"x_min":0,"x_max":0,"o":"m 58 367 l 58 314 b 385 -18 58 100 165 -18 b 704 356 617 -18 704 111 l 704 1046 l 514 1046 l 514 340 b 374 151 514 203 472 151 b 239 332 279 151 239 206 l 239 367 z m 382 1115 l 486 1115 l 607 1224 l 726 1115 l 835 1115 l 694 1332 l 522 1332 z "},"ĵ":{"ha":386,"x_min":0,"x_max":0,"o":"m 276 -56 l 276 742 l 110 742 l 110 -56 b 53 -114 110 -93 83 -114 b -18 -93 26 -114 4 -108 l -21 -93 l -36 -231 b 94 -261 -7 -246 31 -261 b 276 -56 200 -261 276 -196 z m -33 840 l 71 840 l 192 949 l 311 840 l 419 840 l 279 1057 l 107 1057 z "},"Ķ":{"ha":1033,"x_min":0,"x_max":0,"o":"m 583 611 l 957 1046 l 733 1046 l 325 558 l 325 1046 l 135 1046 l 135 0 l 325 0 l 325 333 l 450 471 l 764 0 l 993 0 z m 439 -396 b 601 -224 521 -386 601 -339 l 601 -75 l 438 -75 l 438 -237 l 517 -237 b 439 -324 517 -296 481 -315 z "},"ķ":{"ha":819,"x_min":0,"x_max":0,"o":"m 271 210 l 382 329 l 588 0 l 783 0 l 501 447 l 757 742 l 568 742 l 271 404 l 271 1053 l 104 1053 l 104 0 l 271 0 z m 338 -396 b 500 -224 419 -386 500 -339 l 500 -75 l 336 -75 l 336 -237 l 415 -237 b 338 -324 415 -296 379 -315 z "},"ĸ":{"ha":819,"x_min":0,"x_max":0,"o":"m 271 210 l 382 329 l 588 0 l 783 0 l 501 447 l 758 742 l 569 742 l 271 404 l 271 742 l 104 742 l 104 0 l 271 0 z "},"Ĺ":{"ha":967,"x_min":0,"x_max":0,"o":"m 325 172 l 325 1046 l 135 1046 l 135 0 l 904 0 l 904 172 z m 169 1115 l 282 1115 l 486 1326 l 263 1326 z "},"ĺ":{"ha":394,"x_min":0,"x_max":0,"o":"m 114 1053 l 114 0 l 281 0 l 281 1053 z m 131 1115 l 243 1115 l 447 1326 l 224 1326 z "},"Ļ":{"ha":967,"x_min":0,"x_max":0,"o":"m 325 172 l 325 1046 l 135 1046 l 135 0 l 904 0 l 904 172 z m 440 -396 b 603 -224 522 -386 603 -339 l 603 -75 l 439 -75 l 439 -237 l 518 -237 b 440 -324 518 -296 482 -315 z "},"ļ":{"ha":394,"x_min":0,"x_max":0,"o":"m 114 1053 l 114 0 l 281 0 l 281 1053 z m 117 -396 b 279 -224 199 -386 279 -339 l 279 -75 l 115 -75 l 115 -237 l 194 -237 b 117 -324 194 -296 158 -315 z "},"Ľ":{"ha":967,"x_min":0,"x_max":0,"o":"m 325 172 l 325 1046 l 135 1046 l 135 0 l 904 0 l 904 172 z m 469 663 b 665 874 572 675 665 728 l 665 1046 l 468 1046 l 468 854 l 558 854 b 469 754 558 788 519 765 z "},"ľ":{"ha":550,"x_min":0,"x_max":0,"o":"m 385 669 b 581 881 488 682 581 735 l 581 1053 l 383 1053 l 383 861 l 474 861 b 385 761 474 794 435 772 z m 114 1053 l 114 0 l 281 0 l 281 1053 z "},"Ŀ":{"ha":967,"x_min":0,"x_max":0,"o":"m 325 172 l 325 1046 l 135 1046 l 135 0 l 904 0 l 904 172 z m 606 453 l 767 453 l 767 614 l 606 614 z "},"ŀ":{"ha":551,"x_min":0,"x_max":0,"o":"m 114 1053 l 114 0 l 281 0 l 281 1053 z m 383 549 l 383 363 l 561 363 l 561 549 z "},"Ł":{"ha":976,"x_min":0,"x_max":0,"o":"m 346 640 l 346 1046 l 156 1046 l 156 571 l 18 521 l 18 360 l 156 410 l 156 0 l 925 0 l 925 172 l 346 172 l 346 481 l 568 563 l 568 722 z "},"ł":{"ha":475,"x_min":0,"x_max":0,"o":"m 321 479 l 440 538 l 440 692 l 321 633 l 321 1053 l 154 1053 l 154 553 l 35 494 l 35 340 l 154 399 l 154 0 l 321 0 z "},"Ń":{"ha":1118,"x_min":0,"x_max":0,"o":"m 811 324 l 356 1046 l 135 1046 l 135 0 l 307 0 l 307 783 l 793 0 l 983 0 l 983 1046 l 811 1046 z m 514 1115 l 626 1115 l 831 1326 l 607 1326 z "},"ń":{"ha":851,"x_min":0,"x_max":0,"o":"m 104 742 l 104 0 l 271 0 l 271 390 b 453 613 271 543 349 613 b 588 449 549 613 588 549 l 588 0 l 754 0 l 754 488 b 500 757 754 685 607 757 b 268 622 369 757 303 688 l 271 742 z m 378 854 l 490 854 l 694 1065 l 471 1065 z "},"Ņ":{"ha":1118,"x_min":0,"x_max":0,"o":"m 811 324 l 356 1046 l 135 1046 l 135 0 l 307 0 l 307 783 l 793 0 l 983 0 l 983 1046 l 811 1046 z m 472 -396 b 635 -224 554 -386 635 -339 l 635 -75 l 471 -75 l 471 -237 l 550 -237 b 472 -324 550 -296 514 -315 z "},"ņ":{"ha":851,"x_min":0,"x_max":0,"o":"m 104 742 l 104 0 l 271 0 l 271 390 b 453 613 271 543 349 613 b 588 449 549 613 588 549 l 588 0 l 754 0 l 754 488 b 500 757 754 685 607 757 b 268 622 369 757 303 688 l 271 742 z m 347 -396 b 510 -224 429 -386 510 -339 l 510 -75 l 346 -75 l 346 -237 l 425 -237 b 347 -324 425 -296 389 -315 z "},"Ň":{"ha":1118,"x_min":0,"x_max":0,"o":"m 811 324 l 356 1046 l 135 1046 l 135 0 l 307 0 l 307 783 l 793 0 l 983 0 l 983 1046 l 811 1046 z m 801 1332 l 697 1332 l 576 1224 l 457 1332 l 349 1332 l 489 1115 l 661 1115 z "},"ň":{"ha":851,"x_min":0,"x_max":0,"o":"m 104 742 l 104 0 l 271 0 l 271 390 b 453 613 271 543 349 613 b 588 449 549 613 588 549 l 588 0 l 754 0 l 754 488 b 500 757 754 685 607 757 b 268 622 369 757 303 688 l 271 742 z m 664 1057 l 560 1057 l 439 949 l 319 1057 l 211 1057 l 351 840 l 524 840 z "},"ŉ":{"ha":1065,"x_min":0,"x_max":0,"o":"m 75 663 b 271 874 178 675 271 728 l 271 1046 l 74 1046 l 74 854 l 164 854 b 75 754 164 788 125 765 z m 318 742 l 318 0 l 485 0 l 485 390 b 667 613 485 543 563 613 b 801 449 763 613 801 549 l 801 0 l 968 0 l 968 488 b 714 757 968 685 821 757 b 482 622 583 757 517 688 l 485 742 z "},"Ŋ":{"ha":1118,"x_min":0,"x_max":0,"o":"m 811 346 l 356 1046 l 135 1046 l 135 0 l 307 0 l 307 783 l 811 -7 l 811 -26 b 725 -100 811 -81 769 -100 b 615 -76 676 -100 640 -90 l 613 -76 l 593 -235 b 756 -271 629 -253 676 -271 b 983 -24 888 -271 983 -194 l 983 1046 l 811 1046 z "},"ŋ":{"ha":851,"x_min":0,"x_max":0,"o":"m 754 -65 l 754 488 b 500 757 754 685 607 757 b 268 622 369 757 303 688 l 271 742 l 104 742 l 104 0 l 271 0 l 271 390 b 453 613 271 543 349 613 b 588 449 549 613 588 549 l 588 -65 b 531 -124 588 -103 561 -124 b 460 -103 504 -124 482 -118 l 457 -103 l 442 -240 b 572 -271 471 -256 508 -271 b 754 -65 678 -271 754 -206 z "},"Ō":{"ha":1218,"x_min":0,"x_max":0,"o":"m 86 525 b 614 -18 86 208 293 -18 b 1132 528 951 -18 1132 208 b 608 1064 1132 838 925 1064 b 86 525 290 1064 86 825 z m 608 893 b 928 529 814 893 928 747 b 610 156 928 271 824 156 b 290 526 403 156 290 294 b 608 893 290 743 403 893 z m 401 1125 l 815 1125 l 815 1249 l 401 1249 z "},"ō":{"ha":824,"x_min":0,"x_max":0,"o":"m 413 760 b 57 371 207 760 57 615 b 413 -18 57 136 199 -18 b 767 372 633 -18 767 119 b 413 760 767 614 625 760 z m 414 628 b 601 371 546 628 601 514 b 410 115 601 221 558 115 b 222 382 271 115 222 232 b 414 628 222 528 281 628 z m 204 868 l 618 868 l 618 992 l 204 992 z "},"Ŏ":{"ha":1218,"x_min":0,"x_max":0,"o":"m 86 525 b 614 -18 86 208 293 -18 b 1132 528 951 -18 1132 208 b 608 1064 1132 838 925 1064 b 86 525 290 1064 86 825 z m 608 893 b 928 529 814 893 928 747 b 610 156 928 271 824 156 b 290 526 403 156 290 294 b 608 893 290 743 403 893 z m 607 1125 b 826 1322 729 1125 814 1199 l 706 1332 b 608 1249 697 1288 674 1249 b 513 1332 543 1249 519 1288 l 390 1322 b 607 1125 401 1201 483 1125 z "},"ŏ":{"ha":824,"x_min":0,"x_max":0,"o":"m 413 760 b 57 371 207 760 57 615 b 413 -18 57 136 199 -18 b 767 372 633 -18 767 119 b 413 760 767 614 625 760 z m 414 628 b 601 371 546 628 601 514 b 410 115 601 221 558 115 b 222 382 271 115 222 232 b 414 628 222 528 281 628 z m 400 843 b 619 1040 522 843 607 917 l 499 1050 b 401 967 490 1006 467 967 b 306 1050 336 967 313 1006 l 183 1040 b 400 843 194 919 276 843 z "},"Ő":{"ha":1218,"x_min":0,"x_max":0,"o":"m 86 525 b 614 -18 86 208 293 -18 b 1132 528 951 -18 1132 208 b 608 1064 1132 838 925 1064 b 86 525 290 1064 86 825 z m 608 893 b 928 529 814 893 928 747 b 610 156 928 271 824 156 b 290 526 403 156 290 294 b 608 893 290 743 403 893 z m 676 1115 l 785 1115 l 935 1326 l 744 1326 z m 426 1115 l 536 1115 l 685 1326 l 496 1326 z "},"ő":{"ha":824,"x_min":0,"x_max":0,"o":"m 413 760 b 57 371 207 760 57 615 b 413 -18 57 136 199 -18 b 767 372 633 -18 767 119 b 413 760 767 614 625 760 z m 414 628 b 601 371 546 628 601 514 b 410 115 601 221 558 115 b 222 382 271 115 222 232 b 414 628 222 528 281 628 z m 475 854 l 583 854 l 733 1065 l 543 1065 z m 225 854 l 335 854 l 483 1065 l 294 1065 z "},"Œ":{"ha":1846,"x_min":0,"x_max":0,"o":"m 925 942 b 608 1064 850 1019 744 1064 b 86 525 290 1064 86 825 b 614 -18 86 208 293 -18 b 925 94 751 -18 853 22 l 925 0 l 1758 0 l 1758 172 l 1115 172 l 1115 450 l 1639 450 l 1639 618 l 1115 618 l 1115 874 l 1732 874 l 1732 1046 l 925 1046 z m 608 893 b 928 529 814 893 928 747 b 610 156 928 271 824 156 b 290 526 403 156 290 294 b 608 893 290 743 403 893 z "},"œ":{"ha":1338,"x_min":0,"x_max":0,"o":"m 414 628 b 601 371 546 628 601 514 b 410 115 601 221 558 115 b 222 382 271 115 222 232 b 414 628 222 528 281 628 z m 768 463 b 942 621 786 572 844 621 b 1101 463 1042 621 1093 561 z m 413 760 b 57 371 207 760 57 615 b 413 -18 57 136 199 -18 b 685 122 544 -18 635 29 b 947 -12 739 32 828 -12 b 1275 206 1147 -12 1239 81 l 1133 257 b 953 129 1104 171 1050 129 b 764 335 826 129 774 199 l 1278 335 b 942 757 1278 638 1139 757 b 683 617 822 757 735 707 b 413 760 631 710 540 760 z "},"Ŕ":{"ha":1096,"x_min":0,"x_max":0,"o":"m 799 494 b 988 750 913 526 988 600 b 624 1046 988 958 822 1046 l 135 1046 l 135 0 l 325 0 l 325 431 l 553 431 b 757 213 710 431 746 361 b 800 0 767 86 779 33 l 1006 0 l 1006 6 b 956 236 978 44 961 107 b 799 494 949 376 893 458 z m 325 594 l 325 872 l 632 872 b 797 738 721 872 797 836 b 617 594 797 633 739 594 z m 472 1115 l 585 1115 l 789 1326 l 565 1326 z "},"ŕ":{"ha":569,"x_min":0,"x_max":0,"o":"m 104 742 l 104 0 l 271 0 l 271 381 b 397 585 271 485 313 585 b 479 543 443 585 464 565 l 485 543 l 546 707 b 429 753 524 731 485 753 b 268 613 342 753 293 694 l 271 742 z m 228 854 l 340 854 l 544 1065 l 321 1065 z "},"Ŗ":{"ha":1096,"x_min":0,"x_max":0,"o":"m 799 494 b 988 750 913 526 988 600 b 624 1046 988 958 822 1046 l 135 1046 l 135 0 l 325 0 l 325 431 l 553 431 b 757 213 710 431 746 361 b 800 0 767 86 779 33 l 1006 0 l 1006 6 b 956 236 978 44 961 107 b 799 494 949 376 893 458 z m 325 594 l 325 872 l 632 872 b 797 738 721 872 797 836 b 617 594 797 633 739 594 z m 479 -396 b 642 -224 561 -386 642 -339 l 642 -75 l 478 -75 l 478 -237 l 557 -237 b 479 -324 557 -296 521 -315 z "},"ŗ":{"ha":569,"x_min":0,"x_max":0,"o":"m 104 742 l 104 0 l 271 0 l 271 381 b 397 585 271 485 313 585 b 479 543 443 585 464 565 l 485 543 l 546 707 b 429 753 524 731 485 753 b 268 613 342 753 293 694 l 271 742 z m 107 -396 b 269 -224 189 -386 269 -339 l 269 -75 l 106 -75 l 106 -237 l 185 -237 b 107 -324 185 -296 149 -315 z "},"Ř":{"ha":1096,"x_min":0,"x_max":0,"o":"m 799 494 b 988 750 913 526 988 600 b 624 1046 988 958 822 1046 l 135 1046 l 135 0 l 325 0 l 325 431 l 553 431 b 757 213 710 431 746 361 b 800 0 767 86 779 33 l 1006 0 l 1006 6 b 956 236 978 44 961 107 b 799 494 949 376 893 458 z m 325 594 l 325 872 l 632 872 b 797 738 721 872 797 836 b 617 594 797 633 739 594 z m 764 1332 l 660 1332 l 539 1224 l 419 1332 l 311 1332 l 451 1115 l 624 1115 z "},"ř":{"ha":569,"x_min":0,"x_max":0,"o":"m 104 742 l 104 0 l 271 0 l 271 381 b 397 585 271 485 313 585 b 479 543 443 585 464 565 l 485 543 l 546 707 b 429 753 524 731 485 753 b 268 613 342 753 293 694 l 271 742 z m 540 1057 l 436 1057 l 315 949 l 196 1057 l 88 1057 l 228 840 l 400 840 z "},"Ś":{"ha":1025,"x_min":0,"x_max":0,"o":"m 490 1064 b 83 760 225 1064 83 942 b 471 447 83 528 263 482 b 764 285 679 413 764 393 b 535 151 764 193 685 151 b 224 335 350 151 275 221 l 50 257 b 525 -18 101 90 258 -18 b 961 285 786 -18 961 68 b 543 629 961 526 793 589 b 272 771 358 658 272 668 b 489 899 272 857 335 899 b 774 732 638 899 722 831 l 932 833 b 490 1064 860 978 721 1064 z m 438 1115 l 550 1115 l 754 1326 l 531 1326 z "},"ś":{"ha":749,"x_min":0,"x_max":0,"o":"m 356 757 b 74 539 199 757 74 692 b 354 303 74 360 206 328 b 526 211 476 282 526 272 b 386 128 526 150 465 128 b 172 256 271 128 215 182 l 44 181 b 389 -14 101 57 217 -14 b 688 218 608 -14 688 83 b 401 457 688 396 544 438 b 232 543 283 472 232 485 b 364 618 232 590 271 618 b 551 514 446 618 510 582 l 671 604 b 356 757 606 701 507 757 z m 304 854 l 417 854 l 621 1065 l 397 1065 z "},"Ŝ":{"ha":1025,"x_min":0,"x_max":0,"o":"m 490 1064 b 83 760 225 1064 83 942 b 471 447 83 528 263 482 b 764 285 679 413 764 393 b 535 151 764 193 685 151 b 224 335 350 151 275 221 l 50 257 b 525 -18 101 90 258 -18 b 961 285 786 -18 961 68 b 543 629 961 526 793 589 b 272 771 358 658 272 668 b 489 899 272 857 335 899 b 774 732 638 899 722 831 l 932 833 b 490 1064 860 978 721 1064 z m 264 1115 l 368 1115 l 489 1224 l 608 1115 l 717 1115 l 576 1332 l 404 1332 z "},"ŝ":{"ha":749,"x_min":0,"x_max":0,"o":"m 356 757 b 74 539 199 757 74 692 b 354 303 74 360 206 328 b 526 211 476 282 526 272 b 386 128 526 150 465 128 b 172 256 271 128 215 182 l 44 181 b 389 -14 101 57 217 -14 b 688 218 608 -14 688 83 b 401 457 688 396 544 438 b 232 543 283 472 232 485 b 364 618 232 590 271 618 b 551 514 446 618 510 582 l 671 604 b 356 757 606 701 507 757 z m 132 840 l 236 840 l 357 949 l 476 840 l 585 840 l 444 1057 l 272 1057 z "},"Ş":{"ha":1025,"x_min":0,"x_max":0,"o":"m 546 -321 b 715 -193 640 -321 715 -281 b 572 -60 715 -107 649 -60 b 508 -78 544 -60 522 -68 l 508 -18 l 525 -18 b 961 285 786 -18 961 68 b 543 629 961 526 793 589 b 272 771 358 658 272 668 b 489 899 272 857 335 899 b 774 732 638 899 722 831 l 932 833 b 490 1064 860 978 721 1064 b 83 760 225 1064 83 942 b 471 447 83 528 263 482 b 764 285 679 413 764 393 b 535 151 764 193 685 151 b 224 335 350 151 275 221 l 50 257 b 421 -11 94 113 217 13 l 421 -158 l 496 -158 b 553 -132 507 -142 522 -132 b 607 -190 589 -132 607 -153 b 540 -244 607 -228 579 -244 b 457 -199 497 -244 471 -225 l 379 -240 b 546 -321 411 -293 468 -321 z "},"ş":{"ha":749,"x_min":0,"x_max":0,"o":"m 413 -321 b 582 -193 507 -321 582 -281 b 439 -60 582 -107 515 -60 b 375 -78 411 -60 389 -68 l 375 -14 l 389 -14 b 688 218 608 -14 688 83 b 401 457 688 396 544 438 b 232 543 283 472 232 485 b 364 618 232 590 271 618 b 551 514 446 618 510 582 l 671 604 b 356 757 606 701 507 757 b 74 539 199 757 74 692 b 354 303 74 360 206 328 b 526 211 476 282 526 272 b 386 128 526 150 465 128 b 172 256 271 128 215 182 l 44 181 b 288 -4 89 83 171 18 l 288 -158 l 363 -158 b 419 -132 374 -142 389 -132 b 474 -190 456 -132 474 -153 b 407 -244 474 -228 446 -244 b 324 -199 364 -244 338 -225 l 246 -240 b 413 -321 278 -293 335 -321 z "},"Š":{"ha":1025,"x_min":0,"x_max":0,"o":"m 490 1064 b 83 760 225 1064 83 942 b 471 447 83 528 263 482 b 764 285 679 413 764 393 b 535 151 764 193 685 151 b 224 335 350 151 275 221 l 50 257 b 525 -18 101 90 258 -18 b 961 285 786 -18 961 68 b 543 629 961 526 793 589 b 272 771 358 658 272 668 b 489 899 272 857 335 899 b 774 732 638 899 722 831 l 932 833 b 490 1064 860 978 721 1064 z m 714 1332 l 610 1332 l 489 1224 l 369 1332 l 261 1332 l 401 1115 l 574 1115 z "},"š":{"ha":749,"x_min":0,"x_max":0,"o":"m 356 757 b 74 539 199 757 74 692 b 354 303 74 360 206 328 b 526 211 476 282 526 272 b 386 128 526 150 465 128 b 172 256 271 128 215 182 l 44 181 b 389 -14 101 57 217 -14 b 688 218 608 -14 688 83 b 401 457 688 396 544 438 b 232 543 283 472 232 485 b 364 618 232 590 271 618 b 551 514 446 618 510 582 l 671 604 b 356 757 606 701 507 757 z m 582 1057 l 478 1057 l 357 949 l 238 1057 l 129 1057 l 269 840 l 442 840 z "},"Ţ":{"ha":1042,"x_min":0,"x_max":0,"o":"m 599 -321 b 768 -193 693 -321 768 -281 b 625 -60 768 -107 701 -60 b 561 -78 597 -60 575 -68 l 561 0 l 613 0 l 613 874 l 979 874 l 979 1046 l 63 1046 l 63 874 l 422 874 l 422 0 l 474 0 l 474 -158 l 549 -158 b 606 -132 560 -142 575 -132 b 660 -190 642 -132 660 -153 b 593 -244 660 -228 632 -244 b 510 -199 550 -244 524 -225 l 432 -240 b 599 -321 464 -293 521 -321 z "},"ţ":{"ha":549,"x_min":0,"x_max":0,"o":"m 394 -321 b 564 -193 489 -321 564 -281 b 421 -60 564 -107 497 -60 b 357 -78 393 -60 371 -68 l 357 -18 l 360 -18 b 483 4 418 -18 456 -8 l 493 156 l 489 156 b 392 128 469 139 438 128 b 332 183 353 128 332 147 l 332 600 l 488 600 l 488 742 l 332 742 l 332 992 l 328 992 b 165 847 271 928 222 886 l 165 742 l 38 742 l 38 600 l 165 600 l 165 188 b 269 -1 165 86 203 25 l 269 -158 l 344 -158 b 401 -132 356 -142 371 -132 b 456 -190 438 -132 456 -153 b 389 -244 456 -228 428 -244 b 306 -199 346 -244 319 -225 l 228 -240 b 394 -321 260 -293 317 -321 z "},"Ť":{"ha":1042,"x_min":0,"x_max":0,"o":"m 613 874 l 979 874 l 979 1046 l 63 1046 l 63 874 l 422 874 l 422 0 l 613 0 z m 747 1332 l 643 1332 l 522 1224 l 403 1332 l 294 1332 l 435 1115 l 607 1115 z "},"ť":{"ha":604,"x_min":0,"x_max":0,"o":"m 408 808 b 604 1019 511 821 604 874 l 604 1150 l 407 1150 l 407 1000 l 497 1000 b 408 900 497 933 458 911 z m 332 600 l 488 600 l 488 742 l 332 742 l 332 992 l 328 992 b 165 847 271 928 222 886 l 165 742 l 38 742 l 38 600 l 165 600 l 165 188 b 360 -18 165 47 239 -18 b 483 4 418 -18 456 -8 l 493 156 l 489 156 b 392 128 469 139 438 128 b 332 183 353 128 332 147 z "},"Ŧ":{"ha":1042,"x_min":0,"x_max":0,"o":"m 613 874 l 979 874 l 979 1046 l 63 1046 l 63 874 l 422 874 l 422 618 l 196 618 l 196 450 l 422 450 l 422 0 l 613 0 l 613 450 l 839 450 l 839 618 l 613 618 z "},"ŧ":{"ha":549,"x_min":0,"x_max":0,"o":"m 332 600 l 488 600 l 488 742 l 332 742 l 332 992 l 328 992 b 165 847 271 928 222 886 l 165 742 l 38 742 l 38 600 l 165 600 l 165 463 l 38 463 l 38 321 l 165 321 l 165 188 b 360 -18 165 47 239 -18 b 483 4 418 -18 456 -8 l 493 156 l 489 156 b 392 128 469 139 438 128 b 332 183 353 128 332 147 l 332 321 l 488 321 l 488 463 l 332 463 z "},"Ũ":{"ha":1118,"x_min":0,"x_max":0,"o":"m 565 -18 b 999 397 876 -18 999 114 l 999 1046 l 808 1046 l 808 382 b 564 149 808 208 729 149 b 310 372 403 149 310 204 l 310 1046 l 119 1046 l 119 406 b 565 -18 119 106 272 -18 z m 646 1124 b 806 1299 735 1124 792 1193 l 689 1308 b 643 1251 683 1272 676 1251 b 476 1307 593 1251 560 1307 b 315 1129 390 1307 331 1243 l 425 1119 b 479 1179 432 1157 447 1179 b 646 1124 526 1179 564 1124 z "},"ũ":{"ha":851,"x_min":0,"x_max":0,"o":"m 747 0 l 747 742 l 581 742 l 581 351 b 399 129 581 199 503 129 b 264 293 303 129 264 193 l 264 742 l 97 742 l 97 254 b 351 -15 97 57 244 -15 b 583 119 482 -15 549 57 l 581 0 z m 510 876 b 669 1051 599 876 656 946 l 553 1061 b 507 1004 547 1025 540 1004 b 340 1060 457 1004 424 1060 b 179 882 254 1060 194 996 l 289 872 b 343 932 296 910 311 932 b 510 876 390 932 428 876 z "},"Ū":{"ha":1118,"x_min":0,"x_max":0,"o":"m 565 -18 b 999 397 876 -18 999 114 l 999 1046 l 808 1046 l 808 382 b 564 149 808 208 729 149 b 310 372 403 149 310 204 l 310 1046 l 119 1046 l 119 406 b 565 -18 119 106 272 -18 z m 351 1125 l 765 1125 l 765 1249 l 351 1249 z "},"ū":{"ha":851,"x_min":0,"x_max":0,"o":"m 747 0 l 747 742 l 581 742 l 581 351 b 399 129 581 199 503 129 b 264 293 303 129 264 193 l 264 742 l 97 742 l 97 254 b 351 -15 97 57 244 -15 b 583 119 482 -15 549 57 l 581 0 z m 218 868 l 632 868 l 632 992 l 218 992 z "},"Ŭ":{"ha":1118,"x_min":0,"x_max":0,"o":"m 565 -18 b 999 397 876 -18 999 114 l 999 1046 l 808 1046 l 808 382 b 564 149 808 208 729 149 b 310 372 403 149 310 204 l 310 1046 l 119 1046 l 119 406 b 565 -18 119 106 272 -18 z m 558 1125 b 778 1322 681 1125 765 1199 l 657 1332 b 560 1249 649 1288 625 1249 b 464 1332 494 1249 471 1288 l 342 1322 b 558 1125 353 1201 435 1125 z "},"ŭ":{"ha":851,"x_min":0,"x_max":0,"o":"m 747 0 l 747 742 l 581 742 l 581 351 b 399 129 581 199 503 129 b 264 293 303 129 264 193 l 264 742 l 97 742 l 97 254 b 351 -15 97 57 244 -15 b 583 119 482 -15 549 57 l 581 0 z m 422 843 b 642 1040 544 843 629 917 l 521 1050 b 424 967 513 1006 489 967 b 328 1050 358 967 335 1006 l 206 1040 b 422 843 217 919 299 843 z "},"Ů":{"ha":1118,"x_min":0,"x_max":0,"o":"m 565 -18 b 999 397 876 -18 999 114 l 999 1046 l 808 1046 l 808 382 b 564 149 808 208 729 149 b 310 372 403 149 310 204 l 310 1046 l 119 1046 l 119 406 b 565 -18 119 106 272 -18 z m 558 1074 b 728 1240 661 1074 728 1144 b 560 1406 728 1347 647 1406 b 390 1238 457 1406 390 1333 b 558 1074 390 1144 457 1074 z m 560 1156 b 486 1242 515 1156 486 1186 b 560 1325 486 1297 515 1325 b 633 1240 604 1325 633 1293 b 560 1156 633 1183 604 1156 z "},"ů":{"ha":851,"x_min":0,"x_max":0,"o":"m 747 0 l 747 742 l 581 742 l 581 351 b 399 129 581 199 503 129 b 264 293 303 129 264 193 l 264 742 l 97 742 l 97 254 b 351 -15 97 57 244 -15 b 583 119 482 -15 549 57 l 581 0 z m 425 815 b 594 982 528 815 594 886 b 426 1147 594 1075 526 1147 b 257 979 324 1147 257 1075 b 425 815 257 886 324 815 z m 426 897 b 353 983 382 897 353 928 b 426 1067 353 1039 382 1067 b 500 982 471 1067 500 1035 b 426 897 500 925 471 897 z "},"Ű":{"ha":1118,"x_min":0,"x_max":0,"o":"m 565 -18 b 999 397 876 -18 999 114 l 999 1046 l 808 1046 l 808 382 b 564 149 808 208 729 149 b 310 372 403 149 310 204 l 310 1046 l 119 1046 l 119 406 b 565 -18 119 106 272 -18 z m 613 1115 l 721 1115 l 871 1326 l 681 1326 z m 363 1115 l 472 1115 l 621 1326 l 432 1326 z "},"ű":{"ha":851,"x_min":0,"x_max":0,"o":"m 747 0 l 747 742 l 581 742 l 581 351 b 399 129 581 199 503 129 b 264 293 303 129 264 193 l 264 742 l 97 742 l 97 254 b 351 -15 97 57 244 -15 b 583 119 482 -15 549 57 l 581 0 z m 488 854 l 596 854 l 746 1065 l 556 1065 z m 238 854 l 347 854 l 496 1065 l 307 1065 z "},"Ų":{"ha":1118,"x_min":0,"x_max":0,"o":"m 613 -271 b 725 -243 675 -271 701 -257 l 743 -139 l 740 -139 b 667 -160 719 -150 694 -160 b 617 -112 631 -160 617 -144 b 667 -37 617 -81 638 -57 b 792 19 700 -15 747 1 b 999 397 935 79 999 196 l 999 1046 l 808 1046 l 808 382 b 564 149 808 208 729 149 b 310 372 403 149 310 204 l 310 1046 l 119 1046 l 119 406 b 556 -18 119 108 269 -15 b 471 -151 511 -46 471 -89 b 613 -271 471 -228 535 -271 z "},"ų":{"ha":851,"x_min":0,"x_max":0,"o":"m 646 -271 b 758 -243 708 -271 735 -257 l 776 -139 l 774 -139 b 700 -160 753 -150 728 -160 b 650 -117 664 -160 650 -144 b 747 0 650 -76 685 -46 l 747 742 l 581 742 l 581 351 b 399 129 581 199 503 129 b 264 293 303 129 264 193 l 264 742 l 97 742 l 97 254 b 351 -15 97 57 244 -15 b 583 119 482 -15 549 57 l 581 0 l 622 0 b 504 -151 567 -26 504 -74 b 646 -271 504 -228 568 -271 z "},"Ŵ":{"ha":1479,"x_min":0,"x_max":0,"o":"m 732 790 l 944 0 l 1143 0 l 1443 1046 l 1250 1046 l 1044 286 l 840 1046 l 639 1046 l 432 285 l 240 1046 l 36 1046 l 314 0 l 521 0 z m 506 1115 l 610 1115 l 731 1224 l 850 1115 l 958 1115 l 818 1332 l 646 1332 z "},"ŵ":{"ha":1171,"x_min":0,"x_max":0,"o":"m 667 742 l 496 742 l 347 226 l 214 742 l 40 742 l 251 0 l 422 0 l 578 551 l 728 0 l 899 0 l 1131 742 l 963 742 l 814 226 z m 351 840 l 456 840 l 576 949 l 696 840 l 804 840 l 664 1057 l 492 1057 z "},"Ŷ":{"ha":978,"x_min":0,"x_max":0,"o":"m 404 388 l 404 0 l 594 0 l 594 403 l 953 1046 l 747 1046 l 500 590 l 246 1046 l 25 1046 z m 274 1115 l 378 1115 l 499 1224 l 618 1115 l 726 1115 l 586 1332 l 414 1332 z "},"ŷ":{"ha":739,"x_min":0,"x_max":0,"o":"m 296 10 l 271 -53 b 165 -126 249 -111 210 -126 b 93 -104 135 -126 108 -118 l 90 -104 l 47 -244 b 186 -275 81 -264 131 -275 b 332 -233 239 -275 294 -262 b 433 -81 381 -196 414 -139 l 699 742 l 536 742 l 382 233 l 218 742 l 40 742 z m 142 840 l 246 840 l 367 949 l 486 840 l 594 840 l 454 1057 l 282 1057 z "},"Ÿ":{"ha":978,"x_min":0,"x_max":0,"o":"m 404 388 l 404 0 l 594 0 l 594 403 l 953 1046 l 747 1046 l 500 590 l 246 1046 l 25 1046 z m 290 1115 l 451 1115 l 451 1276 l 290 1276 z m 546 1115 l 707 1115 l 707 1276 l 546 1276 z "},"Ź":{"ha":1008,"x_min":0,"x_max":0,"o":"m 701 881 l 75 172 l 75 0 l 929 0 l 929 165 l 307 165 l 939 883 l 939 1046 l 97 1046 l 97 881 z m 433 1115 l 546 1115 l 750 1326 l 526 1326 z "},"ź":{"ha":725,"x_min":0,"x_max":0,"o":"m 446 600 l 58 136 l 58 0 l 671 0 l 671 140 l 264 140 l 661 618 l 661 742 l 94 742 l 94 600 z m 300 854 l 413 854 l 617 1065 l 393 1065 z "},"Ż":{"ha":1008,"x_min":0,"x_max":0,"o":"m 701 881 l 75 172 l 75 0 l 929 0 l 929 165 l 307 165 l 939 883 l 939 1046 l 97 1046 l 97 881 z m 439 1115 l 600 1115 l 600 1276 l 439 1276 z "},"ż":{"ha":725,"x_min":0,"x_max":0,"o":"m 446 600 l 58 136 l 58 0 l 671 0 l 671 140 l 264 140 l 661 618 l 661 742 l 94 742 l 94 600 z m 292 1053 l 292 867 l 469 867 l 469 1053 z "},"Ž":{"ha":1008,"x_min":0,"x_max":0,"o":"m 701 881 l 75 172 l 75 0 l 929 0 l 929 165 l 307 165 l 939 883 l 939 1046 l 97 1046 l 97 881 z m 754 1332 l 650 1332 l 529 1224 l 410 1332 l 301 1332 l 442 1115 l 614 1115 z "},"ž":{"ha":725,"x_min":0,"x_max":0,"o":"m 446 600 l 58 136 l 58 0 l 671 0 l 671 140 l 264 140 l 661 618 l 661 742 l 94 742 l 94 600 z m 607 1057 l 503 1057 l 382 949 l 263 1057 l 154 1057 l 294 840 l 467 840 z "},"ſ":{"ha":514,"x_min":0,"x_max":0,"o":"m 158 0 l 325 0 l 325 846 b 393 914 325 896 354 914 b 464 889 417 914 446 906 l 468 889 l 494 1019 b 365 1057 468 1042 425 1057 b 158 833 236 1057 158 978 z "},"Ə":{"ha":1128,"x_min":0,"x_max":0,"o":"m 838 576 l 86 576 b 85 526 85 560 85 543 b 561 -18 85 126 296 -18 b 1042 518 843 -18 1042 189 b 568 1064 1042 865 851 1064 b 124 767 318 1064 167 915 l 289 686 b 554 894 331 807 404 894 b 838 576 750 894 822 781 z m 563 156 b 290 418 411 156 317 228 l 829 418 b 563 156 803 242 714 156 z "},"ƒ":{"ha":575,"x_min":0,"x_max":0,"o":"m 369 636 l 390 839 b 458 914 397 900 425 914 b 525 890 483 914 508 907 l 529 890 l 569 1021 b 435 1057 544 1043 503 1057 b 226 826 319 1057 243 981 l 207 636 l 75 636 l 75 494 l 192 494 l 133 -60 b 74 -119 128 -107 104 -119 b 17 -100 56 -119 33 -112 l 13 -100 l -28 -232 b 93 -262 -4 -249 36 -262 b 297 -47 203 -262 282 -196 l 354 494 l 500 494 l 500 636 z "},"Ƶ":{"ha":1008,"x_min":0,"x_max":0,"o":"m 883 450 l 883 615 l 703 615 l 939 883 l 939 1046 l 97 1046 l 97 881 l 701 881 l 467 615 l 138 615 l 138 450 l 321 450 l 75 172 l 75 0 l 929 0 l 929 165 l 307 165 l 557 450 z "},"ƶ":{"ha":725,"x_min":0,"x_max":0,"o":"m 590 301 l 590 443 l 515 443 l 661 618 l 661 742 l 94 742 l 94 600 l 446 600 l 314 443 l 122 443 l 122 301 l 196 301 l 58 136 l 58 0 l 671 0 l 671 140 l 264 140 l 397 301 z "},"Ǻ":{"ha":996,"x_min":0,"x_max":0,"o":"m 301 244 l 685 244 l 764 0 l 957 0 l 614 1024 b 667 1149 647 1054 667 1100 b 499 1314 667 1246 594 1314 b 329 1146 396 1314 329 1242 b 390 1015 329 1092 351 1044 l 39 0 l 219 0 z m 632 406 l 356 406 l 496 821 z m 499 1064 b 425 1150 454 1064 425 1094 b 499 1233 425 1206 454 1233 b 572 1149 543 1233 572 1201 b 499 1064 572 1092 543 1064 z m 429 1342 l 542 1342 l 746 1553 l 522 1553 z "},"ǻ":{"ha":811,"x_min":0,"x_max":0,"o":"m 531 467 b 51 197 215 444 51 386 b 299 -12 51 43 171 -12 b 538 97 431 -12 493 31 b 683 -12 556 31 599 -12 b 765 -7 711 -12 749 -10 l 789 129 l 786 129 b 751 125 775 126 763 125 b 697 181 721 125 697 139 l 697 501 b 410 757 697 682 571 757 b 69 581 253 757 136 708 l 193 500 b 392 613 232 583 300 613 b 531 499 475 613 531 588 z m 531 342 l 531 297 b 322 125 531 193 433 125 b 214 207 251 125 214 153 b 531 342 214 307 340 328 z m 404 815 b 574 982 507 815 574 886 b 406 1147 574 1075 506 1147 b 236 979 303 1147 236 1075 b 404 815 236 886 303 815 z m 406 897 b 332 983 361 897 332 928 b 406 1067 332 1039 361 1067 b 479 982 450 1067 479 1035 b 406 897 479 925 450 897 z m 329 1175 l 442 1175 l 646 1386 l 422 1386 z "},"Ǽ":{"ha":1713,"x_min":0,"x_max":0,"o":"m 1599 1046 l 714 1046 l 28 0 l 229 0 l 381 231 l 810 231 l 810 0 l 1625 0 l 1625 172 l 1000 172 l 1000 450 l 1506 450 l 1506 618 l 1000 618 l 1000 874 l 1599 874 z m 810 392 l 486 392 l 810 885 z m 1053 1115 l 1165 1115 l 1369 1326 l 1146 1326 z "},"ǽ":{"ha":1269,"x_min":0,"x_max":0,"o":"m 531 467 b 51 197 215 444 51 386 b 299 -12 51 43 171 -12 b 601 149 440 -12 529 28 b 879 -12 653 42 750 -12 b 1207 206 1079 -12 1171 81 l 1065 257 b 885 129 1036 171 982 129 b 696 335 758 129 706 199 l 1210 335 b 874 757 1210 638 1071 757 b 635 650 771 757 689 719 b 410 757 594 725 517 757 b 69 581 253 757 136 708 l 193 500 b 392 613 232 583 300 613 b 531 499 475 613 531 588 z m 531 342 l 531 297 b 322 125 531 193 433 125 b 214 207 251 125 214 153 b 531 342 214 307 340 328 z m 700 463 b 874 621 718 572 776 621 b 1033 463 974 621 1025 561 z m 585 854 l 697 854 l 901 1065 l 678 1065 z "},"Ǿ":{"ha":1218,"x_min":0,"x_max":0,"o":"m 189 183 l 18 0 l 226 0 l 297 76 b 614 -18 382 17 489 -18 b 1132 528 951 -18 1132 208 b 1029 864 1132 658 1096 774 l 1200 1046 l 992 1046 l 921 969 b 608 1064 838 1031 731 1064 b 86 525 290 1064 86 825 b 189 183 86 392 124 274 z m 893 717 b 929 529 917 663 929 600 b 610 153 929 271 824 153 b 419 208 533 153 471 172 z m 325 329 b 289 526 301 385 289 450 b 608 896 289 743 403 896 b 799 838 685 896 749 875 z m 535 1115 l 647 1115 l 851 1326 l 628 1326 z "},"ǿ":{"ha":824,"x_min":0,"x_max":0,"o":"m 121 131 l 7 0 l 171 0 l 207 42 b 413 -18 264 3 333 -18 b 767 381 633 -18 767 119 b 704 613 767 472 744 550 l 817 742 l 653 742 l 618 701 b 413 760 561 739 492 760 b 57 371 207 760 57 615 b 121 131 57 276 81 194 z m 235 261 b 221 382 225 297 221 338 b 414 629 221 531 281 629 b 524 593 458 629 496 617 z m 590 481 b 603 371 599 447 603 411 b 410 114 603 218 558 114 b 300 149 364 114 328 126 z m 335 854 l 447 854 l 651 1065 l 428 1065 z "},"Ș":{"ha":1025,"x_min":0,"x_max":0,"o":"m 490 1064 b 83 760 225 1064 83 942 b 471 447 83 528 263 482 b 764 285 679 413 764 393 b 535 151 764 193 685 151 b 224 335 350 151 275 221 l 50 257 b 525 -18 101 90 258 -18 b 961 285 786 -18 961 68 b 543 629 961 526 793 589 b 272 771 358 658 272 668 b 489 899 272 857 335 899 b 774 732 638 899 722 831 l 932 833 b 490 1064 860 978 721 1064 z m 433 -396 b 596 -224 515 -386 596 -339 l 596 -75 l 432 -75 l 432 -237 l 511 -237 b 433 -324 511 -296 475 -315 z "},"ș":{"ha":749,"x_min":0,"x_max":0,"o":"m 356 757 b 74 539 199 757 74 692 b 354 303 74 360 206 328 b 526 211 476 282 526 272 b 386 128 526 150 465 128 b 172 256 271 128 215 182 l 44 181 b 389 -14 101 57 217 -14 b 688 218 608 -14 688 83 b 401 457 688 396 544 438 b 232 543 283 472 232 485 b 364 618 232 590 271 618 b 551 514 446 618 510 582 l 671 604 b 356 757 606 701 507 757 z m 297 -396 b 460 -224 379 -386 460 -339 l 460 -75 l 296 -75 l 296 -237 l 375 -237 b 297 -324 375 -296 339 -315 z "},"Ț":{"ha":1042,"x_min":0,"x_max":0,"o":"m 613 874 l 979 874 l 979 1046 l 63 1046 l 63 874 l 422 874 l 422 0 l 613 0 z m 440 -396 b 603 -224 522 -386 603 -339 l 603 -75 l 439 -75 l 439 -237 l 518 -237 b 440 -324 518 -296 482 -315 z "},"ț":{"ha":549,"x_min":0,"x_max":0,"o":"m 332 600 l 488 600 l 488 742 l 332 742 l 332 992 l 328 992 b 165 847 271 928 222 886 l 165 742 l 38 742 l 38 600 l 165 600 l 165 188 b 360 -18 165 47 239 -18 b 483 4 418 -18 456 -8 l 493 156 l 489 156 b 392 128 469 139 438 128 b 332 183 353 128 332 147 z m 236 -396 b 399 -224 318 -386 399 -339 l 399 -75 l 235 -75 l 235 -237 l 314 -237 b 236 -324 314 -296 278 -315 z "},"ȷ":{"ha":386,"x_min":0,"x_max":0,"o":"m 276 -56 l 276 742 l 110 742 l 110 -56 b 53 -114 110 -93 83 -114 b -18 -93 26 -114 4 -108 l -21 -93 l -36 -231 b 94 -261 -7 -246 31 -261 b 276 -56 200 -261 276 -196 z "},"ə":{"ha":796,"x_min":0,"x_max":0,"o":"m 574 410 l 60 410 b 396 -12 60 107 199 -12 b 739 368 596 -12 739 135 b 390 757 739 626 592 757 b 63 539 190 757 99 664 l 204 488 b 385 615 233 574 288 615 b 574 410 511 615 564 546 z m 569 282 b 396 124 551 172 493 124 b 236 282 296 124 244 183 z "},"ʻ":{"ha":358,"x_min":0,"x_max":0,"o":"m 276 1064 b 81 853 174 1051 81 999 l 81 681 l 278 681 l 278 872 l 188 872 b 276 972 188 939 226 961 z "},"ʼ":{"ha":358,"x_min":0,"x_max":0,"o":"m 82 663 b 278 874 185 675 278 728 l 278 1046 l 81 1046 l 81 854 l 171 854 b 82 754 171 788 132 765 z "},"ˆ":{"ha":824,"x_min":0,"x_max":0,"o":"m 175 840 l 279 840 l 400 949 l 519 840 l 628 840 l 488 1057 l 315 1057 z "},"ˇ":{"ha":725,"x_min":0,"x_max":0,"o":"m 607 1057 l 503 1057 l 382 949 l 263 1057 l 154 1057 l 294 840 l 467 840 z "},"˘":{"ha":694,"x_min":0,"x_max":0,"o":"m 346 801 b 565 999 468 801 553 875 l 444 1008 b 347 925 436 964 413 925 b 251 1008 282 925 258 964 l 129 999 b 346 801 140 878 222 801 z "},"˙":{"ha":694,"x_min":0,"x_max":0,"o":"m 258 1053 l 258 867 l 436 867 l 436 1053 z "},"˚":{"ha":811,"x_min":0,"x_max":0,"o":"m 404 815 b 574 982 507 815 574 886 b 406 1147 574 1075 506 1147 b 236 979 303 1147 236 1075 b 404 815 236 886 303 815 z m 406 897 b 332 983 361 897 332 928 b 406 1067 332 1039 361 1067 b 479 982 450 1067 479 1035 b 406 897 479 925 450 897 z "},"˛":{"ha":729,"x_min":0,"x_max":0,"o":"m 342 -271 b 454 -243 404 -271 431 -257 l 472 -139 l 469 -139 b 396 -160 449 -150 424 -160 b 346 -117 360 -160 346 -144 b 443 0 346 -76 381 -46 l 318 0 b 200 -151 263 -26 200 -74 b 342 -271 200 -228 264 -271 z "},"˜":{"ha":824,"x_min":0,"x_max":0,"o":"m 485 876 b 644 1051 574 876 631 946 l 528 1061 b 482 1004 522 1025 515 1004 b 315 1060 432 1004 399 1060 b 154 882 229 1060 169 996 l 264 872 b 318 932 271 910 286 932 b 485 876 365 932 403 876 z "},"˝":{"ha":694,"x_min":0,"x_max":0,"o":"m 401 854 l 510 854 l 660 1065 l 469 1065 z m 151 854 l 261 854 l 410 1065 l 221 1065 z "},"̀":{"ha":1,"x_min":0,"x_max":0,"o":"m -464 854 l -351 854 l -444 1065 l -667 1065 z "},"́":{"ha":1,"x_min":0,"x_max":0,"o":"m -487 854 l -375 854 l -171 1065 l -394 1065 z "},"̂":{"ha":1,"x_min":0,"x_max":0,"o":"m -647 840 l -543 840 l -422 949 l -303 840 l -194 840 l -335 1057 l -507 1057 z "},"̃":{"ha":1,"x_min":0,"x_max":0,"o":"m -337 876 b -178 1051 -249 876 -192 946 l -294 1061 b -340 1004 -300 1025 -307 1004 b -507 1060 -390 1004 -424 1060 b -668 882 -593 1060 -653 996 l -558 872 b -504 932 -551 910 -536 932 b -337 876 -457 932 -419 876 z "},"̄":{"ha":1,"x_min":0,"x_max":0,"o":"m -553 899 l -139 899 l -139 1022 l -553 1022 z "},"̆":{"ha":1,"x_min":0,"x_max":0,"o":"m -347 840 b -128 1038 -225 840 -140 914 l -249 1047 b -346 964 -257 1003 -281 964 b -442 1047 -411 964 -435 1003 l -564 1038 b -347 840 -553 917 -471 840 z "},"̇":{"ha":1,"x_min":0,"x_max":0,"o":"m -281 1053 l -281 867 l -103 867 l -103 1053 z "},"̈":{"ha":1,"x_min":0,"x_max":0,"o":"m -356 868 l -194 868 l -194 1029 l -356 1029 z m -611 868 l -450 868 l -450 1029 l -611 1029 z "},"̊":{"ha":1,"x_min":0,"x_max":0,"o":"m -406 815 b -236 982 -303 815 -236 886 b -404 1147 -236 1075 -304 1147 b -574 979 -507 1147 -574 1075 b -406 815 -574 886 -507 815 z m -404 897 b -478 983 -449 897 -478 928 b -404 1067 -478 1039 -449 1067 b -331 982 -360 1067 -331 1035 b -404 897 -331 925 -360 897 z "},"̋":{"ha":1,"x_min":0,"x_max":0,"o":"m -292 854 l -183 854 l -33 1065 l -224 1065 z m -542 854 l -432 854 l -283 1065 l -472 1065 z "},"̌":{"ha":1,"x_min":0,"x_max":0,"o":"m -117 1057 l -221 1057 l -342 949 l -461 1057 l -569 1057 l -429 840 l -257 840 z "},"̒":{"ha":1,"x_min":0,"x_max":0,"o":"m -118 1268 b -322 1053 -221 1256 -322 1197 l -322 867 l -117 867 l -117 1069 l -215 1069 b -118 1176 -215 1142 -169 1165 z "},"̓":{"ha":1,"x_min":0,"x_max":0,"o":"m -321 644 b -117 860 -218 657 -117 715 l -117 1046 l -322 1046 l -322 843 l -224 843 b -321 736 -224 771 -269 747 z "},"̦":{"ha":1,"x_min":0,"x_max":0,"o":"m -275 -346 b -79 -135 -172 -333 -79 -281 l -79 38 l -276 38 l -276 -154 l -186 -154 b -275 -254 -186 -221 -225 -243 z "},"̧":{"ha":1,"x_min":0,"x_max":0,"o":"m -282 -321 b -112 -193 -187 -321 -112 -281 b -256 -60 -112 -107 -179 -60 b -319 -78 -283 -60 -306 -68 l -319 0 l -407 0 l -407 -158 l -332 -158 b -275 -132 -321 -142 -306 -132 b -221 -190 -239 -132 -221 -153 b -287 -244 -221 -228 -249 -244 b -371 -199 -331 -244 -357 -225 l -449 -240 b -282 -321 -417 -293 -360 -321 z "},"̨":{"ha":1,"x_min":0,"x_max":0,"o":"m -386 -321 b -274 -293 -324 -321 -297 -307 l -256 -189 l -258 -189 b -332 -210 -279 -200 -304 -210 b -382 -167 -368 -210 -382 -194 b -285 -50 -382 -126 -347 -96 l -410 -50 b -528 -201 -465 -76 -528 -124 b -386 -321 -528 -278 -464 -321 z "},"̵":{"ha":1,"x_min":0,"x_max":0,"o":"m -553 310 l -139 310 l -139 433 l -553 433 z "},"̶":{"ha":1,"x_min":0,"x_max":0,"o":"m -1181 297 l -89 297 l -89 444 l -1181 444 z "},"Δ":{"ha":1008,"x_min":0,"x_max":0,"o":"m 47 0 l 961 0 l 608 1047 l 407 1047 z m 715 163 l 293 163 l 506 831 z "},"Ω":{"ha":1224,"x_min":0,"x_max":0,"o":"m 894 571 b 678 228 894 364 807 257 l 678 0 l 1140 0 l 1140 167 l 843 163 b 1092 583 968 225 1092 350 b 613 1058 1092 860 903 1058 b 124 575 322 1058 124 851 b 353 163 124 389 194 244 l 83 167 l 83 0 l 550 0 l 550 226 b 321 576 431 256 321 336 b 613 896 321 764 422 896 b 894 571 794 896 894 767 z "},"μ":{"ha":858,"x_min":0,"x_max":0,"o":"m 104 742 l 104 -253 l 271 -253 l 271 13 b 368 -15 293 -6 331 -15 b 590 119 493 -15 556 57 l 588 0 l 754 0 l 754 742 l 588 742 l 588 351 b 406 129 588 199 510 129 b 271 293 310 129 271 193 l 271 742 z "},"π":{"ha":961,"x_min":0,"x_max":0,"o":"m 764 596 l 924 596 l 924 742 l 38 742 l 38 596 l 197 596 l 197 0 l 364 0 l 364 596 l 597 596 l 597 188 b 785 -18 597 47 674 -18 b 894 0 835 -18 871 -10 l 904 149 l 900 149 b 821 125 878 132 856 125 b 764 183 786 125 764 144 z "},"Ẁ":{"ha":1479,"x_min":0,"x_max":0,"o":"m 732 790 l 944 0 l 1143 0 l 1443 1046 l 1250 1046 l 1044 286 l 840 1046 l 639 1046 l 432 285 l 240 1046 l 36 1046 l 314 0 l 521 0 z m 699 1115 l 811 1115 l 718 1326 l 496 1326 z "},"ẁ":{"ha":1171,"x_min":0,"x_max":0,"o":"m 667 742 l 496 742 l 347 226 l 214 742 l 40 742 l 251 0 l 422 0 l 578 551 l 728 0 l 899 0 l 1131 742 l 963 742 l 814 226 z m 531 854 l 643 854 l 550 1065 l 328 1065 z "},"Ẃ":{"ha":1479,"x_min":0,"x_max":0,"o":"m 732 790 l 944 0 l 1143 0 l 1443 1046 l 1250 1046 l 1044 286 l 840 1046 l 639 1046 l 432 285 l 240 1046 l 36 1046 l 314 0 l 521 0 z m 665 1115 l 778 1115 l 982 1326 l 758 1326 z "},"ẃ":{"ha":1171,"x_min":0,"x_max":0,"o":"m 667 742 l 496 742 l 347 226 l 214 742 l 40 742 l 251 0 l 422 0 l 578 551 l 728 0 l 899 0 l 1131 742 l 963 742 l 814 226 z m 507 854 l 619 854 l 824 1065 l 600 1065 z "},"Ẅ":{"ha":1479,"x_min":0,"x_max":0,"o":"m 732 790 l 944 0 l 1143 0 l 1443 1046 l 1250 1046 l 1044 286 l 840 1046 l 639 1046 l 432 285 l 240 1046 l 36 1046 l 314 0 l 521 0 z m 781 1115 l 942 1115 l 942 1276 l 781 1276 z m 525 1115 l 686 1115 l 686 1276 l 525 1276 z "},"ẅ":{"ha":1171,"x_min":0,"x_max":0,"o":"m 667 742 l 496 742 l 347 226 l 214 742 l 40 742 l 251 0 l 422 0 l 578 551 l 728 0 l 899 0 l 1131 742 l 963 742 l 814 226 z m 625 868 l 786 868 l 786 1029 l 625 1029 z m 369 868 l 531 868 l 531 1029 l 369 1029 z "},"Ỳ":{"ha":978,"x_min":0,"x_max":0,"o":"m 404 388 l 404 0 l 594 0 l 594 403 l 953 1046 l 747 1046 l 500 590 l 246 1046 l 25 1046 z m 449 1115 l 561 1115 l 468 1326 l 246 1326 z "},"ỳ":{"ha":739,"x_min":0,"x_max":0,"o":"m 296 10 l 271 -53 b 165 -126 249 -111 210 -126 b 93 -104 135 -126 108 -118 l 90 -104 l 47 -244 b 186 -275 81 -264 131 -275 b 332 -233 239 -275 294 -262 b 433 -81 381 -196 414 -139 l 699 742 l 536 742 l 382 233 l 218 742 l 40 742 z m 315 854 l 428 854 l 335 1065 l 113 1065 z "}," ":{"ha":1110,"x_min":0,"x_max":0,"o":""}," ":{"ha":442,"x_min":0,"x_max":0,"o":""},"​":{"ha":0,"x_min":0,"x_max":0,"o":""},"–":{"ha":878,"x_min":0,"x_max":0,"o":"m 90 344 l 788 344 l 788 492 l 90 492 z "},"—":{"ha":1272,"x_min":0,"x_max":0,"o":"m 90 344 l 1182 344 l 1182 492 l 90 492 z "},"‘":{"ha":358,"x_min":0,"x_max":0,"o":"m 276 1064 b 81 853 174 1051 81 999 l 81 681 l 278 681 l 278 872 l 188 872 b 276 972 188 939 226 961 z "},"’":{"ha":358,"x_min":0,"x_max":0,"o":"m 82 663 b 278 874 185 675 278 728 l 278 1046 l 81 1046 l 81 854 l 171 854 b 82 754 171 788 132 765 z "},"‚":{"ha":358,"x_min":0,"x_max":0,"o":"m 82 -192 b 278 19 185 -179 278 -126 l 278 192 l 81 192 l 81 0 l 171 0 b 82 -100 171 -67 132 -89 z "},"“":{"ha":664,"x_min":0,"x_max":0,"o":"m 582 1064 b 386 853 479 1051 386 999 l 386 681 l 583 681 l 583 872 l 493 872 b 582 972 493 939 532 961 z m 276 1064 b 81 853 174 1051 81 999 l 81 681 l 278 681 l 278 872 l 188 872 b 276 972 188 939 226 961 z "},"”":{"ha":664,"x_min":0,"x_max":0,"o":"m 388 663 b 583 874 490 675 583 728 l 583 1046 l 386 1046 l 386 854 l 476 854 b 388 754 476 788 438 765 z m 82 663 b 278 874 185 675 278 728 l 278 1046 l 81 1046 l 81 854 l 171 854 b 82 754 171 788 132 765 z "},"„":{"ha":664,"x_min":0,"x_max":0,"o":"m 388 -192 b 583 19 490 -179 583 -126 l 583 192 l 386 192 l 386 0 l 476 0 b 388 -100 476 -67 438 -89 z m 82 -192 b 278 19 185 -179 278 -126 l 278 192 l 81 192 l 81 0 l 171 0 b 82 -100 171 -67 132 -89 z "},"†":{"ha":708,"x_min":0,"x_max":0,"o":"m 274 633 l 274 0 l 435 0 l 435 633 l 654 633 l 654 776 l 435 776 l 435 1046 l 274 1046 l 274 776 l 54 776 l 54 633 z "},"‡":{"ha":708,"x_min":0,"x_max":0,"o":"m 274 633 l 274 414 l 54 414 l 54 271 l 274 271 l 274 0 l 435 0 l 435 271 l 654 271 l 654 414 l 435 414 l 435 633 l 654 633 l 654 776 l 435 776 l 435 1046 l 274 1046 l 274 776 l 54 776 l 54 633 z "},"•":{"ha":678,"x_min":0,"x_max":0,"o":"m 339 240 b 608 518 508 240 608 360 b 340 788 608 668 506 788 b 69 511 172 788 69 664 b 339 240 69 361 174 240 z "},"…":{"ha":1214,"x_min":0,"x_max":0,"o":"m 890 0 l 1096 0 l 1096 203 l 890 203 z m 118 0 l 324 0 l 324 203 l 118 203 z m 504 0 l 710 0 l 710 203 l 504 203 z "},"‰":{"ha":2056,"x_min":0,"x_max":0,"o":"m 324 456 b 596 763 500 456 596 588 b 325 1061 596 936 496 1061 b 56 758 156 1061 56 931 b 324 456 56 586 149 456 z m 1108 -18 b 1381 289 1285 -18 1381 114 b 1110 588 1381 463 1281 588 b 840 285 940 588 840 457 b 1108 -18 840 113 933 -18 z m 1728 -18 b 2000 289 1904 -18 2000 114 b 1729 588 2000 463 1900 588 b 1460 285 1560 588 1460 457 b 1728 -18 1460 113 1553 -18 z m 1110 106 b 988 286 1024 106 988 171 b 1108 467 988 401 1022 467 b 1233 288 1196 467 1233 399 b 1110 106 1233 174 1196 106 z m 1729 106 b 1607 286 1643 106 1607 171 b 1728 467 1607 401 1642 467 b 1853 288 1815 467 1853 399 b 1729 106 1853 174 1815 106 z m 325 579 b 203 760 239 579 203 644 b 324 940 203 875 238 940 b 449 761 411 940 449 872 b 325 579 449 647 411 579 z m 319 0 l 464 0 l 1114 1046 l 969 1046 z "},"‹":{"ha":469,"x_min":0,"x_max":0,"o":"m 232 54 l 397 54 l 231 335 l 397 615 l 232 615 l 64 335 z "},"›":{"ha":471,"x_min":0,"x_max":0,"o":"m 72 54 l 238 54 l 407 335 l 238 615 l 72 615 l 240 335 z "},"⁄":{"ha":299,"x_min":0,"x_max":0,"o":"m -250 0 l -118 0 l 549 1046 l 417 1046 z "},"⁰":{"ha":646,"x_min":0,"x_max":0,"o":"m 319 467 b 600 767 504 467 600 597 b 322 1057 600 940 490 1057 b 46 763 153 1057 46 929 b 319 467 46 594 135 467 z m 324 586 b 193 764 236 586 193 650 b 322 939 193 872 236 939 b 453 764 407 939 453 875 b 324 586 453 651 410 586 z "},"⁴":{"ha":592,"x_min":0,"x_max":0,"o":"m 319 479 l 456 479 l 456 593 l 556 593 l 556 699 l 456 699 l 456 1046 l 317 1046 b 39 699 260 950 128 796 l 39 593 l 319 593 z m 168 699 b 322 888 224 754 288 832 l 322 699 z "},"⁵":{"ha":568,"x_min":0,"x_max":0,"o":"m 285 467 b 522 671 438 467 522 543 b 317 863 522 811 426 863 b 192 824 257 863 217 844 l 210 933 l 476 933 l 476 1046 l 117 1046 l 65 706 l 183 706 b 286 754 203 733 232 754 b 382 669 347 754 382 726 b 281 581 382 617 349 581 b 175 649 219 581 193 610 l 39 614 b 285 467 71 526 143 467 z "},"⁶":{"ha":588,"x_min":0,"x_max":0,"o":"m 299 467 b 540 668 443 467 540 535 b 321 853 540 793 446 853 b 178 790 251 853 204 826 b 319 944 189 886 238 944 b 432 872 385 944 408 922 l 535 940 b 321 1057 494 1022 422 1057 b 44 749 146 1057 44 926 b 299 467 44 585 125 467 z m 296 574 b 192 660 231 574 192 611 b 299 751 192 715 236 751 b 404 663 363 751 404 717 b 296 574 404 607 364 574 z "},"⁷":{"ha":525,"x_min":0,"x_max":0,"o":"m 135 479 l 279 479 b 485 956 282 661 363 833 l 485 1046 l 36 1046 l 36 933 l 338 933 b 135 479 258 849 140 685 z "},"⁸":{"ha":582,"x_min":0,"x_max":0,"o":"m 290 467 b 539 643 433 467 539 517 b 442 774 539 707 490 758 b 522 890 482 789 522 833 b 294 1057 522 1007 417 1057 b 60 890 175 1057 60 1008 b 142 772 60 824 99 788 b 43 638 90 753 43 706 b 290 467 43 522 143 467 z m 290 572 b 182 649 213 572 182 603 b 292 721 182 694 217 721 b 400 647 368 721 400 693 b 290 572 400 604 364 572 z m 293 815 b 192 883 224 815 192 840 b 293 953 192 928 226 953 b 389 888 358 953 389 928 b 293 815 389 843 365 815 z "},"⁹":{"ha":589,"x_min":0,"x_max":0,"o":"m 274 467 b 539 775 454 467 539 583 b 282 1057 539 939 460 1057 b 40 847 139 1057 40 981 b 265 665 40 726 132 665 b 401 717 338 665 374 688 b 265 576 392 631 349 576 b 147 650 206 576 172 606 l 44 586 b 274 467 82 510 154 467 z m 282 768 b 175 860 213 768 175 800 b 285 949 175 919 219 949 b 390 860 347 949 390 918 b 282 768 390 800 350 768 z "},"₀":{"ha":646,"x_min":0,"x_max":0,"o":"m 319 -199 b 600 101 504 -199 600 -68 b 322 392 600 275 490 392 b 46 97 153 392 46 264 b 319 -199 46 -71 135 -199 z m 324 -79 b 193 99 236 -79 193 -15 b 322 274 193 207 236 274 b 453 99 407 274 453 210 b 324 -79 453 -14 410 -79 z "},"₁":{"ha":349,"x_min":0,"x_max":0,"o":"m 165 381 b 26 256 150 314 101 271 l 26 151 b 136 183 69 154 117 168 l 136 -186 l 276 -186 l 276 381 z "},"₂":{"ha":572,"x_min":0,"x_max":0,"o":"m 39 -186 l 519 -186 l 519 -72 l 229 -72 b 343 13 235 -42 264 -24 b 522 213 432 53 522 94 b 292 390 522 324 443 390 b 42 207 150 390 74 317 l 161 165 b 289 279 179 239 219 279 b 379 210 340 279 379 261 b 233 83 379 140 318 129 b 39 -186 103 13 44 -60 z "},"₃":{"ha":579,"x_min":0,"x_max":0,"o":"m 42 -36 b 293 -199 64 -132 157 -199 b 533 -25 446 -199 533 -126 b 440 108 533 51 494 85 b 522 228 485 129 522 163 b 294 392 522 324 444 392 b 56 224 179 392 83 332 l 169 183 b 293 282 186 251 225 282 b 382 217 357 282 382 258 b 306 153 382 172 353 153 l 235 153 l 235 46 l 296 46 b 388 -18 367 46 388 24 b 292 -86 388 -60 358 -86 b 161 14 213 -86 183 -56 z "},"₄":{"ha":592,"x_min":0,"x_max":0,"o":"m 319 -186 l 456 -186 l 456 -72 l 556 -72 l 556 33 l 456 33 l 456 381 l 317 381 b 39 33 260 285 128 131 l 39 -72 l 319 -72 z m 168 33 b 322 222 224 89 288 167 l 322 33 z "},"₅":{"ha":568,"x_min":0,"x_max":0,"o":"m 285 -199 b 522 6 438 -199 522 -122 b 317 197 522 146 426 197 b 192 158 257 197 217 179 l 210 268 l 476 268 l 476 381 l 117 381 l 65 40 l 183 40 b 286 89 203 68 232 89 b 382 4 347 89 382 61 b 281 -85 382 -49 349 -85 b 175 -17 219 -85 193 -56 l 39 -51 b 285 -199 71 -139 143 -199 z "},"₆":{"ha":588,"x_min":0,"x_max":0,"o":"m 299 -199 b 540 3 443 -199 540 -131 b 321 188 540 128 446 188 b 178 125 251 188 204 161 b 319 279 189 221 238 279 b 432 207 385 279 408 257 l 535 275 b 321 392 494 357 422 392 b 44 83 146 392 44 261 b 299 -199 44 -81 125 -199 z m 296 -92 b 192 -6 231 -92 192 -54 b 299 86 192 50 236 86 b 404 -3 363 86 404 51 b 296 -92 404 -58 364 -92 z "},"₇":{"ha":525,"x_min":0,"x_max":0,"o":"m 135 -186 l 279 -186 b 485 290 282 -4 363 168 l 485 381 l 36 381 l 36 268 l 338 268 b 135 -186 258 183 140 19 z "},"₈":{"ha":582,"x_min":0,"x_max":0,"o":"m 290 -199 b 539 -22 433 -199 539 -149 b 442 108 539 42 490 93 b 522 225 482 124 522 168 b 294 392 522 342 417 392 b 60 225 175 392 60 343 b 142 107 60 158 99 122 b 43 -28 90 88 43 40 b 290 -199 43 -143 143 -199 z m 290 -93 b 182 -17 213 -93 182 -62 b 292 56 182 29 217 56 b 400 -18 368 56 400 28 b 290 -93 400 -61 364 -93 z m 293 150 b 192 218 224 150 192 175 b 293 288 192 263 226 288 b 389 222 358 288 389 263 b 293 150 389 178 365 150 z "},"₉":{"ha":589,"x_min":0,"x_max":0,"o":"m 274 -199 b 539 110 454 -199 539 -82 b 282 392 539 274 460 392 b 40 182 139 392 40 315 b 265 0 40 61 132 0 b 401 51 338 0 374 22 b 265 -89 392 -35 349 -89 b 147 -15 206 -89 172 -60 l 44 -79 b 274 -199 82 -156 154 -199 z m 282 103 b 175 194 213 103 175 135 b 285 283 175 254 219 283 b 390 194 347 283 390 253 b 282 103 390 135 350 103 z "},"₤":{"ha":954,"x_min":0,"x_max":0,"o":"m 233 517 l 100 517 l 100 399 l 292 399 b 321 321 303 374 313 347 b 226 343 290 335 260 343 b 38 160 129 343 38 275 b 235 -21 38 40 126 -21 b 435 71 311 -21 386 14 b 658 -14 492 25 563 -14 b 914 269 819 -14 893 93 l 746 290 b 631 154 733 204 706 154 b 489 211 582 154 536 179 l 489 221 b 460 399 489 281 476 340 l 692 399 l 692 517 l 419 517 l 396 579 l 692 579 l 692 697 l 361 697 b 356 758 357 718 356 739 b 519 900 356 854 419 900 b 718 749 629 900 678 850 l 885 825 b 522 1064 828 969 728 1064 b 161 758 310 1064 161 949 b 165 697 161 738 163 717 l 100 697 l 100 579 l 203 579 z m 335 175 b 240 108 318 126 274 108 b 179 167 201 108 179 132 b 242 218 179 199 204 218 b 335 175 274 218 304 203 z "},"€":{"ha":1097,"x_min":0,"x_max":0,"o":"m 338 572 l 689 572 l 689 690 l 354 690 b 614 899 386 817 464 899 b 874 693 761 899 831 825 l 1038 776 b 614 1064 972 968 828 1064 b 156 690 356 1064 204 908 l 35 690 l 35 572 l 140 572 b 139 525 139 557 139 540 b 140 464 139 504 140 483 l 35 464 l 35 346 l 158 346 b 608 -18 208 126 358 -18 b 1040 253 857 -18 983 110 l 879 340 b 615 150 838 232 765 150 b 356 346 467 150 389 222 l 689 346 l 689 464 l 338 464 b 336 526 336 483 336 504 b 338 572 336 542 336 557 z "},"™":{"ha":1058,"x_min":0,"x_max":0,"o":"m 500 613 l 593 613 l 593 900 l 688 613 l 779 613 l 874 900 l 874 613 l 975 613 l 975 1046 l 836 1046 l 736 729 l 632 1046 l 500 1046 z m 186 613 l 290 613 l 290 958 l 424 958 l 424 1046 l 49 1046 l 49 958 l 186 958 z "},"Ω":{"ha":1224,"x_min":0,"x_max":0,"o":"m 894 571 b 678 228 894 364 807 257 l 678 0 l 1140 0 l 1140 167 l 843 163 b 1092 583 968 225 1092 350 b 613 1058 1092 860 903 1058 b 124 575 322 1058 124 851 b 353 163 124 389 194 244 l 83 167 l 83 0 l 550 0 l 550 226 b 321 576 431 256 321 336 b 613 896 321 764 422 896 b 894 571 794 896 894 767 z "},"⅐":{"ha":1172,"x_min":0,"x_max":0,"o":"m 165 1046 b 26 921 150 979 101 936 l 26 817 b 136 849 69 819 117 833 l 136 479 l 276 479 l 276 1046 z m 99 0 l 231 0 l 897 1046 l 765 1046 z m 782 0 l 926 0 b 1132 476 929 182 1010 354 l 1132 567 l 683 567 l 683 454 l 985 454 b 782 0 906 369 788 206 z "},"⅑":{"ha":1194,"x_min":0,"x_max":0,"o":"m 165 1046 b 26 921 150 979 101 936 l 26 817 b 136 849 69 819 117 833 l 136 479 l 276 479 l 276 1046 z m 99 0 l 231 0 l 897 1046 l 765 1046 z m 879 -12 b 1144 296 1060 -12 1144 104 b 888 578 1144 460 1065 578 b 646 368 744 578 646 501 b 871 186 646 247 738 186 b 1007 238 943 186 979 208 b 871 97 997 151 954 97 b 753 171 811 97 778 126 l 650 107 b 879 -12 688 31 760 -12 z m 888 289 b 781 381 818 289 781 321 b 890 469 781 440 825 469 b 996 381 953 469 996 439 b 888 289 996 321 956 289 z "},"⅒":{"ha":1571,"x_min":0,"x_max":0,"o":"m 165 1046 b 26 921 150 979 101 936 l 26 817 b 136 849 69 819 117 833 l 136 479 l 276 479 l 276 1046 z m 99 0 l 231 0 l 897 1046 l 765 1046 z m 1244 -12 b 1525 288 1429 -12 1525 118 b 1247 578 1525 461 1415 578 b 971 283 1078 578 971 450 b 1244 -12 971 115 1060 -12 z m 1249 107 b 1118 285 1161 107 1118 171 b 1247 460 1118 393 1161 460 b 1378 285 1332 460 1378 396 b 1249 107 1378 172 1335 107 z m 757 567 b 618 442 742 500 693 457 l 618 338 b 728 369 661 340 708 354 l 728 0 l 868 0 l 868 567 z "},"⅓":{"ha":1174,"x_min":0,"x_max":0,"o":"m 165 1046 b 26 921 150 979 101 936 l 26 817 b 136 849 69 819 117 833 l 136 479 l 276 479 l 276 1046 z m 131 0 l 263 0 l 929 1046 l 797 1046 z m 651 150 b 903 -12 674 54 767 -12 b 1143 161 1056 -12 1143 60 b 1050 294 1143 238 1104 271 b 1132 414 1094 315 1132 349 b 904 578 1132 510 1054 578 b 665 410 789 578 693 518 l 779 369 b 903 468 796 438 835 468 b 992 403 967 468 992 444 b 915 339 992 358 963 339 l 844 339 l 844 232 l 906 232 b 997 168 976 232 997 210 b 901 100 997 126 968 100 b 771 200 822 100 793 131 z "},"⅔":{"ha":1304,"x_min":0,"x_max":0,"o":"m 39 479 l 519 479 l 519 593 l 229 593 b 343 678 235 624 264 642 b 522 878 432 718 522 760 b 292 1056 522 989 443 1056 b 42 872 150 1056 74 982 l 161 831 b 289 944 179 904 219 944 b 379 875 340 944 379 926 b 233 749 379 806 318 794 b 39 479 103 678 44 606 z m 281 0 l 413 0 l 1079 1046 l 947 1046 z m 767 150 b 1018 -12 789 54 882 -12 b 1258 161 1171 -12 1258 60 b 1165 294 1258 238 1219 271 b 1247 414 1210 315 1247 349 b 1019 578 1247 510 1169 578 b 781 410 904 578 808 518 l 894 369 b 1018 468 911 438 950 468 b 1107 403 1082 468 1107 444 b 1031 339 1107 358 1078 339 l 960 339 l 960 232 l 1021 232 b 1113 168 1092 232 1113 210 b 1017 100 1113 126 1083 100 b 886 200 938 100 908 131 z "},"⅕":{"ha":1188,"x_min":0,"x_max":0,"o":"m 165 1046 b 26 921 150 979 101 936 l 26 817 b 136 849 69 819 117 833 l 136 479 l 276 479 l 276 1046 z m 99 0 l 231 0 l 897 1046 l 765 1046 z m 904 -12 b 1142 192 1057 -12 1142 64 b 936 383 1142 332 1046 383 b 811 344 876 383 836 365 l 829 454 l 1096 454 l 1096 567 l 736 567 l 685 226 l 803 226 b 906 275 822 254 851 275 b 1001 190 967 275 1001 247 b 900 101 1001 138 968 101 b 794 169 839 101 813 131 l 658 135 b 904 -12 690 47 763 -12 z "},"⅖":{"ha":1411,"x_min":0,"x_max":0,"o":"m 39 479 l 519 479 l 519 593 l 229 593 b 343 678 235 624 264 642 b 522 878 432 718 522 760 b 292 1056 522 989 443 1056 b 42 872 150 1056 74 982 l 161 831 b 289 944 179 904 219 944 b 379 875 340 944 379 926 b 233 749 379 806 318 794 b 39 479 103 678 44 606 z m 322 0 l 454 0 l 1121 1046 l 989 1046 z m 1128 -12 b 1365 192 1281 -12 1365 64 b 1160 383 1365 332 1269 383 b 1035 344 1100 383 1060 365 l 1053 454 l 1319 454 l 1319 567 l 960 567 l 908 226 l 1026 226 b 1129 275 1046 254 1075 275 b 1225 190 1190 275 1225 247 b 1124 101 1225 138 1192 101 b 1018 169 1063 101 1036 131 l 882 135 b 1128 -12 914 47 986 -12 z "},"⅗":{"ha":1397,"x_min":0,"x_max":0,"o":"m 42 629 b 293 467 64 533 157 467 b 533 640 446 467 533 539 b 440 774 533 717 494 750 b 522 893 485 794 522 828 b 294 1057 522 989 444 1057 b 56 889 179 1057 83 997 l 169 849 b 293 947 186 917 225 947 b 382 882 357 947 382 924 b 306 818 382 838 353 818 l 235 818 l 235 711 l 296 711 b 388 647 367 711 388 689 b 292 579 388 606 358 579 b 161 679 213 579 183 610 z m 308 0 l 440 0 l 1107 1046 l 975 1046 z m 1114 -12 b 1351 192 1267 -12 1351 64 b 1146 383 1351 332 1256 383 b 1021 344 1086 383 1046 365 l 1039 454 l 1306 454 l 1306 567 l 946 567 l 894 226 l 1013 226 b 1115 275 1032 254 1061 275 b 1211 190 1176 275 1211 247 b 1110 101 1211 138 1178 101 b 1004 169 1049 101 1022 131 l 868 135 b 1114 -12 900 47 972 -12 z "},"⅘":{"ha":1417,"x_min":0,"x_max":0,"o":"m 319 479 l 456 479 l 456 593 l 556 593 l 556 699 l 456 699 l 456 1046 l 317 1046 b 39 699 260 950 128 796 l 39 593 l 319 593 z m 168 699 b 322 888 224 754 288 832 l 322 699 z m 328 0 l 460 0 l 1126 1046 l 994 1046 z m 1133 -12 b 1371 192 1286 -12 1371 64 b 1165 383 1371 332 1275 383 b 1040 344 1106 383 1065 365 l 1058 454 l 1325 454 l 1325 567 l 965 567 l 914 226 l 1032 226 b 1135 275 1051 254 1081 275 b 1231 190 1196 275 1231 247 b 1129 101 1231 138 1197 101 b 1024 169 1068 101 1042 131 l 888 135 b 1133 -12 919 47 992 -12 z "},"⅙":{"ha":1179,"x_min":0,"x_max":0,"o":"m 165 1046 b 26 921 150 979 101 936 l 26 817 b 136 849 69 819 117 833 l 136 479 l 276 479 l 276 1046 z m 99 0 l 231 0 l 897 1046 l 765 1046 z m 890 -12 b 1132 189 1035 -12 1132 56 b 913 374 1132 314 1038 374 b 769 311 843 374 796 347 b 911 465 781 407 829 465 b 1024 393 976 465 1000 443 l 1126 461 b 913 578 1086 543 1014 578 b 636 269 738 578 636 447 b 890 -12 636 106 717 -12 z m 888 94 b 783 181 822 94 783 132 b 890 272 783 236 828 272 b 996 183 954 272 996 238 b 888 94 996 128 956 94 z "},"⅚":{"ha":1371,"x_min":0,"x_max":0,"o":"m 285 467 b 522 671 438 467 522 543 b 317 863 522 811 426 863 b 192 824 257 863 217 844 l 210 933 l 476 933 l 476 1046 l 117 1046 l 65 706 l 183 706 b 286 754 203 733 232 754 b 382 669 347 754 382 726 b 281 581 382 617 349 581 b 175 649 219 581 193 610 l 39 614 b 285 467 71 526 143 467 z m 290 0 l 422 0 l 1089 1046 l 957 1046 z m 1082 -12 b 1324 189 1226 -12 1324 56 b 1104 374 1324 314 1229 374 b 961 311 1035 374 988 347 b 1103 465 972 407 1021 465 b 1215 393 1168 465 1192 443 l 1318 461 b 1104 578 1278 543 1206 578 b 828 269 929 578 828 447 b 1082 -12 828 106 908 -12 z m 1079 94 b 975 181 1014 94 975 132 b 1082 272 975 236 1019 272 b 1188 183 1146 272 1188 238 b 1079 94 1188 128 1147 94 z "},"⅛":{"ha":1210,"x_min":0,"x_max":0,"o":"m 165 1046 b 26 921 150 979 101 936 l 26 817 b 136 849 69 819 117 833 l 136 479 l 276 479 l 276 1046 z m 132 0 l 264 0 l 931 1046 l 799 1046 z m 918 -12 b 1167 164 1061 -12 1167 38 b 1069 294 1167 228 1118 279 b 1150 411 1110 310 1150 354 b 922 578 1150 528 1044 578 b 688 411 803 578 688 529 b 769 293 688 344 726 308 b 671 158 718 274 671 226 b 918 -12 671 43 771 -12 z m 918 93 b 810 169 840 93 810 124 b 919 242 810 215 844 242 b 1028 168 996 242 1028 214 b 918 93 1028 125 992 93 z m 921 336 b 819 404 851 336 819 361 b 921 474 819 449 854 474 b 1017 408 986 474 1017 449 b 921 336 1017 364 993 336 z "},"⅜":{"ha":1293,"x_min":0,"x_max":0,"o":"m 42 629 b 293 467 64 533 157 467 b 533 640 446 467 533 539 b 440 774 533 717 494 750 b 522 893 485 794 522 828 b 294 1057 522 989 444 1057 b 56 889 179 1057 83 997 l 169 849 b 293 947 186 917 225 947 b 382 882 357 947 382 924 b 306 818 382 838 353 818 l 235 818 l 235 711 l 296 711 b 388 647 367 711 388 689 b 292 579 388 606 358 579 b 161 679 213 579 183 610 z m 251 0 l 383 0 l 1050 1046 l 918 1046 z m 1001 -12 b 1250 164 1144 -12 1250 38 b 1153 294 1250 228 1201 279 b 1233 411 1193 310 1233 354 b 1006 578 1233 528 1128 578 b 771 411 886 578 771 529 b 853 293 771 344 810 308 b 754 158 801 274 754 226 b 1001 -12 754 43 854 -12 z m 1001 93 b 893 169 924 93 893 124 b 1003 242 893 215 928 242 b 1111 168 1079 242 1111 214 b 1001 93 1111 125 1075 93 z m 1004 336 b 903 404 935 336 903 361 b 1004 474 903 449 938 474 b 1100 408 1069 474 1100 449 b 1004 336 1100 364 1076 336 z "},"⅝":{"ha":1293,"x_min":0,"x_max":0,"o":"m 285 467 b 522 671 438 467 522 543 b 317 863 522 811 426 863 b 192 824 257 863 217 844 l 210 933 l 476 933 l 476 1046 l 117 1046 l 65 706 l 183 706 b 286 754 203 733 232 754 b 382 669 347 754 382 726 b 281 581 382 617 349 581 b 175 649 219 581 193 610 l 39 614 b 285 467 71 526 143 467 z m 247 0 l 379 0 l 1046 1046 l 914 1046 z m 1001 -12 b 1250 164 1144 -12 1250 38 b 1153 294 1250 228 1201 279 b 1233 411 1193 310 1233 354 b 1006 578 1233 528 1128 578 b 771 411 886 578 771 529 b 853 293 771 344 810 308 b 754 158 801 274 754 226 b 1001 -12 754 43 854 -12 z m 1001 93 b 893 169 924 93 893 124 b 1003 242 893 215 928 242 b 1111 168 1079 242 1111 214 b 1001 93 1111 125 1075 93 z m 1004 336 b 903 404 935 336 903 361 b 1004 474 903 449 938 474 b 1100 408 1069 474 1100 449 b 1004 336 1100 364 1076 336 z "},"⅞":{"ha":1210,"x_min":0,"x_max":0,"o":"m 135 479 l 279 479 b 485 956 282 661 363 833 l 485 1046 l 36 1046 l 36 933 l 338 933 b 135 479 258 849 140 685 z m 135 0 l 267 0 l 933 1046 l 801 1046 z m 918 -12 b 1167 164 1061 -12 1167 38 b 1069 294 1167 228 1118 279 b 1150 411 1110 310 1150 354 b 922 578 1150 528 1044 578 b 688 411 803 578 688 529 b 769 293 688 344 726 308 b 671 158 718 274 671 226 b 918 -12 671 43 771 -12 z m 918 93 b 810 169 840 93 810 124 b 919 242 810 215 844 242 b 1028 168 996 242 1028 214 b 918 93 1028 125 992 93 z m 921 336 b 819 404 851 336 819 361 b 921 474 819 449 854 474 b 1017 408 986 474 1017 449 b 921 336 1017 364 993 336 z "},"⅟":{"ha":647,"x_min":0,"x_max":0,"o":"m 165 1046 b 26 921 150 979 101 936 l 26 817 b 136 849 69 819 117 833 l 136 479 l 276 479 l 276 1046 z m 99 0 l 231 0 l 897 1046 l 765 1046 z "},"↉":{"ha":1293,"x_min":0,"x_max":0,"o":"m 269 0 l 401 0 l 1068 1046 l 936 1046 z m 756 150 b 1007 -12 778 54 871 -12 b 1247 161 1160 -12 1247 60 b 1154 294 1247 238 1208 271 b 1236 414 1199 315 1236 349 b 1008 578 1236 510 1158 578 b 769 410 893 578 797 518 l 883 369 b 1007 468 900 438 939 468 b 1096 403 1071 468 1096 444 b 1019 339 1096 358 1067 339 l 949 339 l 949 232 l 1010 232 b 1101 168 1081 232 1101 210 b 1006 100 1101 126 1072 100 b 875 200 926 100 897 131 z m 319 467 b 600 767 504 467 600 597 b 322 1057 600 940 490 1057 b 46 763 153 1057 46 929 b 319 467 46 594 135 467 z m 324 586 b 193 764 236 586 193 650 b 322 939 193 872 236 939 b 453 764 407 939 453 875 b 324 586 453 651 410 586 z "},"←":{"ha":867,"x_min":0,"x_max":0,"o":"m 317 404 l 813 404 l 813 549 l 314 549 l 588 696 l 588 875 l 56 538 l 56 417 l 588 79 l 588 256 z "},"↑":{"ha":894,"x_min":0,"x_max":0,"o":"m 368 606 l 368 51 l 526 51 l 526 607 l 667 343 l 849 343 l 511 886 l 383 886 l 44 343 l 224 343 z "},"→":{"ha":867,"x_min":0,"x_max":0,"o":"m 549 549 l 53 549 l 53 404 l 550 404 l 278 258 l 278 79 l 810 417 l 810 538 l 278 875 l 278 699 z "},"↓":{"ha":894,"x_min":0,"x_max":0,"o":"m 526 332 l 526 886 l 368 886 l 368 331 l 228 594 l 46 594 l 383 51 l 511 51 l 850 594 l 671 594 z "},"∂":{"ha":804,"x_min":0,"x_max":0,"o":"m 397 -18 b 757 399 615 -18 757 106 b 335 1083 757 728 572 953 l 249 976 b 519 696 339 917 457 828 b 364 751 479 733 432 751 b 47 369 181 751 47 600 b 397 -18 47 142 185 -18 z m 399 115 b 213 374 272 115 213 221 b 399 624 213 525 269 624 b 592 369 522 624 592 529 b 399 115 592 199 524 115 z "},"∆":{"ha":1008,"x_min":0,"x_max":0,"o":"m 47 0 l 961 0 l 608 1047 l 407 1047 z m 715 163 l 293 163 l 506 831 z "},"∏":{"ha":1311,"x_min":0,"x_max":0,"o":"m 454 875 l 858 875 l 858 -262 l 1049 -262 l 1049 875 l 1240 875 l 1240 1047 l 71 1047 l 71 875 l 264 875 l 264 -262 l 454 -262 z "},"∑":{"ha":1057,"x_min":0,"x_max":0,"o":"m 85 -262 l 983 -262 l 983 -90 l 311 -90 l 728 424 l 728 435 l 338 874 l 979 874 l 979 1046 l 85 1046 l 85 863 l 474 419 l 85 -79 z "},"−":{"ha":758,"x_min":0,"x_max":0,"o":"m 90 339 l 668 339 l 668 490 l 90 490 z "},"∙":{"ha":765,"x_min":0,"x_max":0,"o":"m 382 240 b 651 518 551 240 651 360 b 383 788 651 668 549 788 b 113 511 215 788 113 664 b 382 240 113 361 217 240 z "},"√":{"ha":881,"x_min":0,"x_max":0,"o":"m 839 1047 l 663 1047 l 378 221 l 253 542 l 58 542 l 289 0 l 476 0 z "},"∞":{"ha":950,"x_min":0,"x_max":0,"o":"m 267 199 b 472 321 368 199 432 263 b 682 199 514 263 581 199 b 896 433 803 199 896 290 b 683 671 896 581 803 671 b 476 549 582 671 522 607 b 268 671 435 606 372 671 b 54 436 147 671 54 581 b 267 199 54 290 147 199 z m 669 332 b 551 438 621 332 586 372 b 669 538 582 500 621 538 b 756 435 726 538 756 499 b 669 332 756 368 724 332 z m 279 332 b 194 435 225 332 194 371 b 281 538 194 503 225 538 b 399 432 328 538 364 497 b 279 332 368 369 328 332 z "},"∫":{"ha":499,"x_min":0,"x_max":0,"o":"m 319 -47 l 319 839 b 382 914 319 900 350 914 b 449 890 406 914 431 907 l 453 890 l 479 1021 b 354 1057 453 1043 413 1057 b 153 826 235 1057 153 978 l 153 -60 b 100 -119 153 -104 131 -119 b 40 -100 82 -119 60 -114 l 36 -100 l 10 -232 b 128 -262 36 -250 78 -262 b 319 -47 244 -262 319 -189 z "},"≈":{"ha":713,"x_min":0,"x_max":0,"o":"m 465 446 b 651 656 564 446 635 525 l 522 667 b 457 593 515 621 494 593 b 251 676 399 593 346 676 b 61 464 154 676 79 606 l 192 451 b 258 529 199 500 221 529 b 465 446 308 529 369 446 z m 465 154 b 651 364 564 154 635 233 l 522 375 b 457 301 515 329 494 301 b 251 385 399 301 346 385 b 61 172 154 385 79 314 l 192 160 b 258 238 199 208 221 238 b 465 154 308 238 369 154 z "},"≠":{"ha":757,"x_min":0,"x_max":0,"o":"m 478 481 l 667 481 l 667 633 l 544 633 l 606 775 l 465 775 l 404 633 l 90 633 l 90 481 l 338 481 l 279 346 l 90 346 l 90 193 l 213 193 l 151 53 l 292 53 l 353 193 l 667 193 l 667 346 l 419 346 z "},"≤":{"ha":713,"x_min":0,"x_max":0,"o":"m 624 217 l 624 371 l 269 531 l 624 678 l 624 836 l 86 593 l 86 460 z m 90 0 l 626 0 l 626 151 l 90 151 z "},"≥":{"ha":710,"x_min":0,"x_max":0,"o":"m 86 836 l 86 682 l 440 522 l 86 375 l 86 217 l 624 460 l 624 593 z m 622 151 l 86 151 l 86 0 l 622 0 z "},"⋅":{"ha":765,"x_min":0,"x_max":0,"o":"m 279 354 l 485 354 l 485 557 l 279 557 z "},"◊":{"ha":728,"x_min":0,"x_max":0,"o":"m 310 82 l 429 82 l 664 519 l 424 944 l 304 944 l 64 504 z m 368 242 l 228 510 l 361 776 l 504 510 z "},"ﬀ":{"ha":938,"x_min":0,"x_max":0,"o":"m 582 600 l 582 0 l 749 0 l 749 600 l 890 600 l 890 742 l 749 742 l 749 846 b 817 914 749 896 778 914 b 888 889 840 914 869 906 l 892 889 l 918 1019 b 789 1057 892 1042 849 1057 b 582 833 660 1057 582 978 l 582 742 l 325 742 l 325 839 b 393 907 325 889 354 907 b 464 882 417 907 446 899 l 468 882 l 494 1013 b 365 1050 468 1035 425 1050 b 158 826 236 1050 158 971 l 158 742 l 43 742 l 43 600 l 158 600 l 158 0 l 325 0 l 325 600 z "},"ﬁ":{"ha":890,"x_min":0,"x_max":0,"o":"m 158 600 l 158 0 l 325 0 l 325 600 l 467 600 l 467 742 l 325 742 l 325 846 b 393 914 325 896 354 914 b 464 889 417 914 446 906 l 468 889 l 494 1019 b 365 1057 468 1042 425 1057 b 158 833 236 1057 158 978 l 158 742 l 43 742 l 43 600 z m 614 742 l 614 0 l 781 0 l 781 742 z m 608 1053 l 608 867 l 786 867 l 786 1053 z "},"ﬂ":{"ha":894,"x_min":0,"x_max":0,"o":"m 158 600 l 158 0 l 325 0 l 325 600 l 467 600 l 467 742 l 325 742 l 325 846 b 393 914 325 896 354 914 b 464 889 417 914 446 906 l 468 889 l 494 1019 b 365 1057 468 1042 425 1057 b 158 833 236 1057 158 978 l 158 742 l 43 742 l 43 600 z m 614 1053 l 614 0 l 781 0 l 781 1053 z "}}}
